<svg xmlns="http://www.w3.org/2000/svg" fill-rule="evenodd" stroke-linejoin="round" stroke-miterlimit="2" clip-rule="evenodd" viewBox="0 0 120 120"><path fill="#fff" d="M52.995 111.724c1.007 3.606 4.174 6.055 8.362 7.128 5.01 1.283 10.875 1.262 14.818 1.016 4.109-.257 11.21-1.91 15.562-5.124 3.627-2.677 5.524-6.32 3.942-10.88-1.207-3.481-3.753-5.49-7.425-5.524-4.388-.039-9.496 1.764-15.688 3.04-6.707 1.38-11.723 1.869-15.604 3.001-2.151.627-3.248 1.9-3.838 3.404-.448 1.14-.548 2.437-.129 3.939zm4.68-1.437c-.209-1.265 1.418-2.185 2.567-2.338 3.977-.53 7.436-.814 13.264-1.687 4.765-.714 7.687-1.39 11.125-2.015 2.16-.391 3.745-.055 4.387 1.798.717 2.068-.074 3.431-1.743 4.609-3.513 2.476-7.288 3.526-11.541 4.123-4.478.628-9.22.357-13.69-.788-2.137-.546-4.06-1.819-4.37-3.702zm-24.02-73.808c-.789-.653-.788-3.138-1.576-5.285-.869-2.365-1.765-4.094-3.833-5.234-2.049-1.128-4.974-1.727-9.113.051-5.061 2.175-6.51 4.38-7.444 7.346-1.403 4.453-.02 8.56 1.694 11.185 2.549 3.903 5.62 4.518 8.997 4.165 1.157-.12 3.155-.635 3.952-.07 1.018.72.936 4.057 1.093 5.345.468 3.822 1.791 7.206 6 8.23 1.747.425 3.843.694 3.843.694-.492 1.468-.71 2.37-.565 4.077.15 1.775.445 2.45 1.139 3.674-3.039.716-6.539 1.728-9.04 3.894-2.705 2.343-4.247 6.02-2.94 11.627 1.461 6.262 6.547 7.743 13.496 8.516 8.877.989 20.836-.297 30.15-2.719 11.76-3.058 21.326-6.036 28.024-11.457 5.382-4.354 7.484-9.977 4.5-16.278-1.516-3.203-4.19-5.279-6.208-6.304-3.069-1.559-6.508-1.222-9.71-.014-.159.06-.318.122-.476.187a8.68 8.68 0 00-.236-2.51c-.489-1.997-1.666-3.719-3.307-5.01 2.528-.788 4.051-1.914 5.003-3.075 1.337-1.63 1.833-3.468 1.754-5.228-.087-1.926-.236-4.014.645-5.44 1.798-2.912 3.32-3.734 9.013-4.998 3.176-.705 4.66-1.696 6.51-4.865 2.329-3.986 4.18-11.124 3.825-15.968-.47-6.42-3.744-11.26-10.08-11.005-5.59.225-9.556 2.151-11.876 4.53-3.86 3.958-3.639 12.629-6.99 15.884-1.047 1.018-4.092 1.47-6.978 2.191-2.702.677-5.634 1.728-7.71 4.101-2.83 3.232-2.971 8.357-4.347 12.852-1.064 3.477-4.207 4.24-6.732 4.606-3.37.487-5.885-.36-6.823-1.25-.774-.734-1.082-1.688-1.547-2.642-.764-1.567-1.895-2.94-4.436-3.702-2.33-.698-3.74-.689-5.276-.403-.927.172-1.998.63-2.395.302zm11.123 38.875c2.313-.064 5.134-.206 8.062-2.764 3.514-3.07 3.498-8.081 1.658-11.856-1.315-2.697-4.904-5.008-9.234-4.871-3.815.12-3.653 1.906-8.506 1.185-1.422-.211-3.647-.359-4.022-3.716-.194-1.737-.304-3.522-.682-4.973-.386-1.487-1.062-2.697-2.067-3.544-1.746-1.47-4.22-1.533-6.96-1.167-.87.116-1.79.285-2.691.273-1.102-.015-2.169-.344-2.994-1.608-1.058-1.62-2.429-4.444-1.563-7.191.578-1.835 2.207-3.5 5.338-4.845 2.009-.863 3.125-.988 4.141-.482.995.494 1.672 1.602 2.08 2.715.894 2.433 1.313 5.11 2.019 6.486.66 1.288 1.403 1.962 2.122 2.36.857.475 1.771.618 2.84.488 1.135-.139 2.826-.974 5.16-.272 1.19.358 1.62 1.337 1.97 2.093.536 1.161 1.174 2.31 2.361 3.31 1.554 1.308 5.412 3.208 10.805 2.43 4.49-.649 5.872-1.543 7.351-2.729 2.182-1.748 2.994-3.5 3.739-6.052 1.038-3.559 1.323-8.96 3.827-10.992 1.412-1.146 2.695-1.486 4.296-2.022 2.368-.792 4.358-.809 7.627-1.868 2.114-.684 4.148-3.281 4.854-5.739 1.238-4.312 2.005-8.13 4.361-10.417 1.859-1.803 3.641-2.49 7.548-1.92 2.26.329 3.536 2.514 3.775 5.765.281 3.83.221 5.898-1.128 9.717-.903 2.555-2.582 2.953-4.15 3.333-2.149.52-3.994 1.17-5.507 1.845-2.06.919-3.562 2.062-4.67 3.261-1.97 2.133-2.713 4.347-2.954 6.945-.235 2.53-.085 4.462-.83 5.497-.945 1.314-2.735 1.897-6.555 2.198-7.075.557-11.27 2.89-13.556 5.709-2.53 3.118-2.943 6.974-1.977 10.604 1.118 4.197 4.122 6.19 7.751 6.78 4.557.74 9.52-.163 12.432-1.954 1.55-.954 3.706-2.372 6.305-3.285.962-.337 2.194-.708 3.816.116 1.155.587 2.797 1.677 3.664 3.51.707 1.492.981 2.749.816 3.892-.253 1.75-1.434 3.277-3.46 4.76-6.471 4.74-12.597 7.451-27.288 11.232-8.396 2.161-16.784 3.136-25.013 2.22-4.458-.496-8.033-.987-9.034-4.99-1.032-4.13.746-6.384 3.408-7.767 3.22-1.673 8.922-1.65 10.715-1.7z"/></svg>