<?xml version="1.0" encoding="UTF-8"?>
<svg width="274px" height="274px" viewBox="0 0 274 274" version="1.1" xmlns="http://www.w3.org/2000/svg" xmlns:xlink="http://www.w3.org/1999/xlink">
    <title>Bighead</title>
    <defs>
        <filter x="-9.6%" y="-9.6%" width="119.2%" height="119.2%" filterUnits="objectBoundingBox" id="filter-1">
            <feOffset dx="0" dy="0" in="SourceAlpha" result="shadowOffsetOuter1"></feOffset>
            <feGaussianBlur stdDeviation="6" in="shadowOffsetOuter1" result="shadowBlurOuter1"></feGaussianBlur>
            <feColorMatrix values="0 0 0 0 0   0 0 0 0 0   0 0 0 0 0  0 0 0 0.2 0" type="matrix" in="shadowBlurOuter1" result="shadowMatrixOuter1"></feColorMatrix>
            <feMerge>
                <feMergeNode in="shadowMatrixOuter1"></feMergeNode>
                <feMergeNode in="SourceGraphic"></feMergeNode>
            </feMerge>
        </filter>
    </defs>
    <g id="Page-2" stroke="none" stroke-width="1" fill="none" fill-rule="evenodd">
        <g id="home" transform="translate(-563.000000, -373.000000)" fill="#FFFFFF" fill-rule="nonzero">
            <g id="teaser" transform="translate(-1.000000, 110.000000)">
                <g id="Bighead" filter="url(#filter-1)" transform="translate(581.000000, 280.000000)">
                    <path d="M67.1770467,200.144897 L172.931325,200.144897 L172.931325,239.292035 L67.1770467,239.292035 L67.1770467,200.144897 Z M73.0511695,233.422773 L167.059209,233.422773 L167.059209,206.016165 L73.0511695,206.016165 L73.0511695,233.422773 Z" id="path12" transform="translate(120.054186, 219.718466) scale(-1, 1) rotate(-180.000000) translate(-120.054186, -219.718466) "></path>
                    <path d="M200.353463,172.736885 L200.353463,139.459009 L167.059409,139.459009 L167.059409,106.183139 L73.0513701,106.183139 L73.0513701,139.459009 L39.7573162,139.459009 L39.7573162,172.736885 L0.591146347,172.736885 L0.591146347,100.313876 L33.8852003,100.313876 L33.8852003,67.036 L67.1772474,67.036 L67.1772474,39.6253805 L33.8852003,39.6253805 L33.8852003,0.480247788 L206.225579,0.480247788 L206.225579,39.6253805 L172.931525,39.6253805 L172.931525,67.036 L206.225579,67.036 L206.225579,100.313876 L239.519633,100.313876 L239.519633,172.736885 L200.353463,172.736885 Z M172.931525,100.313876 L172.931525,133.589746 L206.225579,133.589746 L206.225579,166.867622 L233.647517,166.867622 L233.647517,106.183139 L200.353463,106.183139 L200.353463,72.9052625 L172.931525,72.9052625 L133.767362,72.9052625 L133.767362,33.756118 L172.931525,33.756118 L200.353463,33.756118 L200.353463,6.34951032 L39.7573162,6.34951032 L39.7573162,33.756118 L67.1772474,33.756118 L106.345424,33.756118 L106.345424,72.9052625 L67.1772474,72.9052625 L39.7573162,72.9052625 L39.7573162,106.183139 L6.4632622,106.183139 L6.4632622,166.867622 L33.8852003,166.867622 L33.8852003,133.589746 L67.1772474,133.589746 L67.1772474,100.313876 L172.931525,100.313876 Z" id="path16" transform="translate(120.055390, 86.608566) scale(-1, 1) rotate(-180.000000) translate(-120.055390, -86.608566) "></path>
                </g>
            </g>
        </g>
    </g>
</svg>