<?xml version="1.0" encoding="UTF-8" standalone="no"?>
<!DOCTYPE svg PUBLIC "-//W3C//DTD SVG 1.1//EN" "http://www.w3.org/Graphics/SVG/1.1/DTD/svg11.dtd">
<svg width="100%" height="100%" viewBox="0 0 160 160" version="1.1" xmlns="http://www.w3.org/2000/svg" xmlns:xlink="http://www.w3.org/1999/xlink" xml:space="preserve" xmlns:serif="http://www.serif.com/" style="fill-rule:evenodd;clip-rule:evenodd;stroke-linejoin:round;stroke-miterlimit:2;">
    <g transform="matrix(1,0,0,1,-422.854,-411.116)">
        <g transform="matrix(0.117978,0,0,0.117978,264.556,166.655)">
            <g id="font" transform="matrix(0.980194,-3.4285e-18,0,0.988199,-965.782,843.222)">
                <g transform="matrix(-156.25,-34.4375,34.4375,-156.25,2964.98,2501.76)">
                    <path d="M0.051,-0.723L0.531,-0.723L0.531,-0.63L0.337,-0.63L0.337,-0L0.24,-0L0.24,-0.63L0.051,-0.63L0.051,-0.723Z" style="fill-rule:nonzero;"/>
                </g>
                <g transform="matrix(-146.839,-63.5482,63.5482,-146.839,2873.36,2483.08)">
                    <path d="M0.676,-0.723L0.676,-0L0.58,-0L0.58,-0.317L0.201,-0.317L0.201,-0L0.104,-0L0.104,-0.723L0.201,-0.723L0.201,-0.409L0.58,-0.409L0.58,-0.723L0.676,-0.723Z" style="fill-rule:nonzero;"/>
                </g>
                <g transform="matrix(-130.724,-92.2559,92.2559,-130.724,2758.67,2432.57)">
                    <path d="M0.104,-0.723L0.574,-0.723L0.574,-0.63L0.201,-0.63L0.201,-0.41L0.534,-0.41L0.534,-0.317L0.201,-0.317L0.201,-0.093L0.588,-0.093L0.588,-0L0.104,-0L0.104,-0.723Z" style="fill-rule:nonzero;"/>
                </g>
                <g transform="matrix(-102.22,-123.09,123.09,-102.22,2635.72,2338.13)">
                    <path d="M0.297,-0.723C0.35,-0.723 0.395,-0.714 0.432,-0.697C0.469,-0.679 0.498,-0.653 0.519,-0.62C0.539,-0.587 0.549,-0.546 0.549,-0.499C0.549,-0.47 0.545,-0.442 0.536,-0.414C0.527,-0.387 0.514,-0.362 0.495,-0.34C0.475,-0.317 0.451,-0.299 0.42,-0.286C0.389,-0.273 0.352,-0.266 0.308,-0.266L0.201,-0.266L0.201,-0L0.104,-0L0.104,-0.723L0.297,-0.723ZM0.307,-0.359C0.336,-0.359 0.359,-0.364 0.378,-0.373C0.397,-0.382 0.411,-0.394 0.422,-0.408C0.433,-0.423 0.44,-0.438 0.445,-0.454C0.45,-0.47 0.452,-0.484 0.452,-0.497C0.452,-0.512 0.45,-0.527 0.445,-0.543C0.44,-0.558 0.433,-0.573 0.422,-0.586C0.41,-0.599 0.396,-0.609 0.379,-0.618C0.361,-0.626 0.339,-0.63 0.313,-0.63L0.201,-0.63L0.201,-0.359L0.307,-0.359Z" style="fill-rule:nonzero;"/>
                </g>
                <g transform="matrix(-87.1874,-134.158,134.158,-87.1874,2575.84,2264.35)">
                    <rect x="0.104" y="-0.723" width="0.097" height="0.723" style="fill-rule:nonzero;"/>
                </g>
                <g transform="matrix(-68.0581,-144.804,144.804,-68.0581,2547.34,2224.15)">
                    <path d="M0.044,-0.723L0.167,-0.723L0.638,-0L0.514,-0L0.044,-0.723ZM0.034,-0L0.285,-0.393L0.332,-0.299L0.154,-0L0.034,-0ZM0.335,-0.428L0.511,-0.723L0.628,-0.723L0.387,-0.347L0.335,-0.428Z" style="fill-rule:nonzero;"/>
                </g>
                <g transform="matrix(-39.1799,-155.129,155.129,-39.1799,2501.33,2126.54)">
                    <path d="M0.104,-0.723L0.574,-0.723L0.574,-0.63L0.201,-0.63L0.201,-0.41L0.534,-0.41L0.534,-0.317L0.201,-0.317L0.201,-0.093L0.588,-0.093L0.588,-0L0.104,-0L0.104,-0.723Z" style="fill-rule:nonzero;"/>
                </g>
                <g transform="matrix(-10.8296,-159.633,159.633,-10.8296,2475.35,2025.27)">
                    <path d="M0.104,-0.723L0.201,-0.723L0.201,-0.093L0.568,-0.093L0.568,-0L0.104,-0L0.104,-0.723Z" style="fill-rule:nonzero;"/>
                </g>
                <g transform="matrix(19.011,-158.867,158.867,19.011,2467.05,1925.67)">
                    <path d="M0.676,-0.723L0.676,-0L0.58,-0L0.58,-0.317L0.201,-0.317L0.201,-0L0.104,-0L0.104,-0.723L0.201,-0.723L0.201,-0.409L0.58,-0.409L0.58,-0.723L0.676,-0.723Z" style="fill-rule:nonzero;"/>
                </g>
                <g transform="matrix(51.2092,-151.584,151.584,51.2092,2482.64,1801.6)">
                    <path d="M0.104,-0.723L0.574,-0.723L0.574,-0.63L0.201,-0.63L0.201,-0.41L0.534,-0.41L0.534,-0.317L0.201,-0.317L0.201,-0.093L0.588,-0.093L0.588,-0L0.104,-0L0.104,-0.723Z" style="fill-rule:nonzero;"/>
                </g>
                <g transform="matrix(78.1561,-139.612,139.612,78.1561,2515.61,1702.12)">
                    <path d="M0.032,-0L0.348,-0.753L0.354,-0.753L0.669,-0L0.558,-0L0.322,-0.601L0.391,-0.646L0.127,-0L0.032,-0ZM0.217,-0.274L0.486,-0.274L0.518,-0.19L0.189,-0.19L0.217,-0.274Z" style="fill-rule:nonzero;"/>
                </g>
                <g transform="matrix(105.396,-120.381,120.381,105.396,2570.05,1603.38)">
                    <path d="M0.104,-0L0.104,-0.723L0.301,-0.723C0.372,-0.723 0.433,-0.712 0.484,-0.69C0.534,-0.668 0.574,-0.639 0.605,-0.603C0.636,-0.567 0.658,-0.527 0.673,-0.484C0.687,-0.44 0.694,-0.396 0.694,-0.353C0.694,-0.298 0.685,-0.249 0.666,-0.206C0.647,-0.163 0.62,-0.126 0.587,-0.095C0.554,-0.064 0.516,-0.041 0.472,-0.025C0.43,-0.008 0.384,-0 0.336,-0L0.104,-0ZM0.201,-0.093L0.317,-0.093C0.357,-0.093 0.394,-0.099 0.428,-0.111C0.461,-0.123 0.491,-0.14 0.516,-0.163C0.541,-0.186 0.56,-0.214 0.574,-0.247C0.588,-0.28 0.595,-0.317 0.595,-0.359C0.595,-0.404 0.588,-0.443 0.573,-0.476C0.558,-0.51 0.538,-0.538 0.513,-0.561C0.488,-0.584 0.459,-0.601 0.427,-0.613C0.395,-0.624 0.361,-0.63 0.326,-0.63L0.201,-0.63L0.201,-0.093Z" style="fill-rule:nonzero;"/>
                </g>
                <g transform="matrix(134.745,-86.2778,86.2778,134.745,2688.14,1479.58)">
                    <path d="M0.635,-0.054C0.623,-0.046 0.607,-0.037 0.586,-0.027C0.565,-0.017 0.541,-0.009 0.514,-0.002C0.486,0.005 0.456,0.008 0.423,0.008C0.367,0.007 0.317,-0.003 0.272,-0.022C0.227,-0.041 0.188,-0.068 0.157,-0.101C0.126,-0.134 0.102,-0.173 0.085,-0.217C0.068,-0.26 0.059,-0.307 0.059,-0.356C0.059,-0.41 0.068,-0.46 0.086,-0.505C0.103,-0.551 0.128,-0.591 0.16,-0.625C0.192,-0.658 0.23,-0.684 0.274,-0.703C0.317,-0.722 0.365,-0.731 0.417,-0.731C0.46,-0.731 0.5,-0.725 0.535,-0.714C0.57,-0.702 0.601,-0.688 0.626,-0.672L0.587,-0.582C0.567,-0.595 0.543,-0.608 0.515,-0.62C0.486,-0.632 0.455,-0.638 0.42,-0.638C0.385,-0.638 0.351,-0.631 0.32,-0.617C0.289,-0.603 0.261,-0.583 0.237,-0.558C0.213,-0.533 0.194,-0.503 0.181,-0.469C0.167,-0.436 0.16,-0.4 0.16,-0.361C0.16,-0.322 0.166,-0.285 0.179,-0.252C0.191,-0.218 0.209,-0.189 0.232,-0.164C0.255,-0.139 0.282,-0.12 0.315,-0.106C0.348,-0.092 0.384,-0.085 0.425,-0.085C0.462,-0.085 0.494,-0.091 0.523,-0.102C0.552,-0.113 0.575,-0.126 0.594,-0.14L0.635,-0.054Z" style="fill-rule:nonzero;"/>
                </g>
                <g transform="matrix(149.233,-57.7014,57.7014,149.233,2772.94,1422.64)">
                    <path d="M0.059,-0.361C0.059,-0.411 0.069,-0.458 0.087,-0.502C0.107,-0.547 0.133,-0.586 0.167,-0.621C0.201,-0.655 0.24,-0.682 0.284,-0.702C0.329,-0.721 0.377,-0.731 0.428,-0.731C0.479,-0.731 0.526,-0.721 0.571,-0.702C0.615,-0.682 0.654,-0.655 0.689,-0.621C0.723,-0.586 0.75,-0.547 0.769,-0.502C0.788,-0.458 0.798,-0.411 0.798,-0.361C0.798,-0.31 0.788,-0.262 0.769,-0.217C0.75,-0.172 0.723,-0.133 0.689,-0.1C0.654,-0.066 0.615,-0.04 0.571,-0.021C0.526,-0.002 0.479,0.008 0.428,0.008C0.377,0.008 0.329,-0.001 0.284,-0.02C0.24,-0.039 0.201,-0.065 0.167,-0.098C0.133,-0.131 0.107,-0.17 0.087,-0.215C0.069,-0.26 0.059,-0.308 0.059,-0.361ZM0.159,-0.36C0.159,-0.322 0.166,-0.286 0.18,-0.254C0.194,-0.221 0.213,-0.191 0.238,-0.166C0.263,-0.141 0.291,-0.121 0.324,-0.107C0.357,-0.092 0.392,-0.085 0.43,-0.085C0.467,-0.085 0.502,-0.092 0.535,-0.107C0.568,-0.121 0.596,-0.141 0.62,-0.166C0.644,-0.191 0.663,-0.221 0.677,-0.254C0.691,-0.286 0.698,-0.322 0.698,-0.361C0.698,-0.399 0.691,-0.435 0.677,-0.469C0.663,-0.502 0.644,-0.532 0.619,-0.557C0.594,-0.582 0.566,-0.602 0.533,-0.617C0.5,-0.631 0.465,-0.638 0.428,-0.638C0.39,-0.638 0.355,-0.631 0.322,-0.616C0.289,-0.601 0.261,-0.581 0.236,-0.556C0.211,-0.531 0.192,-0.501 0.179,-0.468C0.166,-0.434 0.159,-0.398 0.159,-0.36Z" style="fill-rule:nonzero;"/>
                </g>
                <g transform="matrix(156.004,-35.5362,35.5362,156.004,2902.19,1376.93)">
                    <path d="M0.034,-0.053C0.034,-0.068 0.04,-0.08 0.051,-0.091C0.062,-0.101 0.074,-0.106 0.087,-0.106C0.099,-0.106 0.111,-0.101 0.122,-0.091C0.133,-0.08 0.138,-0.068 0.138,-0.053C0.138,-0.037 0.133,-0.024 0.122,-0.015C0.111,-0.005 0.099,-0 0.087,-0C0.074,-0 0.062,-0.005 0.051,-0.015C0.04,-0.024 0.034,-0.037 0.034,-0.053Z" style="fill-rule:nonzero;"/>
                </g>
                <g transform="matrix(159.911,-5.32551,5.32551,159.911,2978.05,1361.43)">
                    <path d="M0.478,-0.594C0.453,-0.607 0.426,-0.618 0.397,-0.627C0.368,-0.636 0.339,-0.641 0.311,-0.641C0.272,-0.641 0.242,-0.632 0.219,-0.614C0.196,-0.596 0.184,-0.572 0.184,-0.542C0.184,-0.519 0.191,-0.5 0.206,-0.485C0.221,-0.469 0.24,-0.455 0.264,-0.444C0.288,-0.433 0.313,-0.422 0.339,-0.412C0.362,-0.403 0.384,-0.394 0.406,-0.383C0.428,-0.372 0.448,-0.359 0.466,-0.343C0.483,-0.327 0.497,-0.307 0.507,-0.284C0.518,-0.261 0.523,-0.232 0.523,-0.197C0.523,-0.159 0.514,-0.124 0.495,-0.093C0.475,-0.062 0.448,-0.037 0.413,-0.019C0.378,-0.001 0.336,0.008 0.287,0.008C0.255,0.008 0.225,0.004 0.196,-0.003C0.167,-0.01 0.14,-0.02 0.115,-0.032C0.09,-0.043 0.068,-0.055 0.049,-0.068L0.092,-0.144C0.108,-0.133 0.126,-0.122 0.147,-0.112C0.168,-0.101 0.189,-0.093 0.212,-0.086C0.235,-0.08 0.257,-0.077 0.278,-0.077C0.301,-0.077 0.323,-0.081 0.345,-0.09C0.368,-0.098 0.386,-0.111 0.401,-0.128C0.416,-0.145 0.423,-0.168 0.423,-0.197C0.423,-0.222 0.417,-0.242 0.404,-0.259C0.391,-0.275 0.373,-0.289 0.352,-0.301C0.331,-0.312 0.308,-0.323 0.284,-0.332C0.261,-0.341 0.238,-0.35 0.215,-0.361C0.192,-0.371 0.17,-0.384 0.15,-0.399C0.13,-0.413 0.114,-0.432 0.102,-0.454C0.09,-0.476 0.084,-0.503 0.084,-0.534C0.084,-0.572 0.093,-0.605 0.112,-0.633C0.13,-0.662 0.155,-0.684 0.187,-0.701C0.219,-0.717 0.256,-0.726 0.297,-0.727C0.344,-0.727 0.385,-0.721 0.421,-0.71C0.456,-0.699 0.488,-0.685 0.515,-0.668L0.478,-0.594Z" style="fill-rule:nonzero;"/>
                </g>
                <g transform="matrix(158.122,24.444,-24.444,158.122,3071.62,1357.11)">
                    <path d="M0.202,-0.432L0.199,-0.396L0.212,-0.414L0.508,-0.723L0.633,-0.723L0.334,-0.413L0.65,-0L0.527,-0L0.263,-0.351L0.202,-0.292L0.202,-0L0.104,-0L0.104,-0.723L0.202,-0.723L0.202,-0.432Z" style="fill-rule:nonzero;"/>
                </g>
                <g transform="matrix(151.001,52.9031,-52.9031,151.001,3179.46,1373.09)">
                    <path d="M0.032,-0L0.348,-0.753L0.354,-0.753L0.669,-0L0.558,-0L0.322,-0.601L0.391,-0.646L0.127,-0L0.032,-0ZM0.217,-0.274L0.486,-0.274L0.518,-0.19L0.189,-0.19L0.217,-0.274Z" style="fill-rule:nonzero;"/>
                </g>
                <g transform="matrix(140.316,76.8854,-76.8854,140.316,3276.96,1407.32)">
                    <path d="M0.051,-0.723L0.531,-0.723L0.531,-0.63L0.337,-0.63L0.337,-0L0.24,-0L0.24,-0.63L0.051,-0.63L0.051,-0.723Z" style="fill-rule:nonzero;"/>
                </g>
                <g transform="matrix(124.564,100.418,-100.418,124.564,3359.15,1451.49)">
                    <path d="M0.104,-0.723L0.574,-0.723L0.574,-0.63L0.201,-0.63L0.201,-0.41L0.534,-0.41L0.534,-0.317L0.201,-0.317L0.201,-0.093L0.588,-0.093L0.588,-0L0.104,-0L0.104,-0.723Z" style="fill-rule:nonzero;"/>
                </g>
                <g transform="matrix(92.7449,130.378,-130.378,92.7449,3476.4,1553.36)">
                    <path d="M0.672,-0L0.56,-0L0.213,-0.459C0.207,-0.468 0.2,-0.48 0.192,-0.494C0.184,-0.508 0.177,-0.524 0.172,-0.541C0.166,-0.558 0.163,-0.575 0.163,-0.593C0.163,-0.622 0.17,-0.649 0.184,-0.674C0.198,-0.699 0.218,-0.719 0.245,-0.734C0.271,-0.749 0.303,-0.757 0.341,-0.757C0.38,-0.757 0.416,-0.749 0.447,-0.734C0.477,-0.719 0.503,-0.701 0.523,-0.68L0.474,-0.615C0.454,-0.634 0.434,-0.649 0.414,-0.66C0.395,-0.671 0.375,-0.676 0.356,-0.676C0.327,-0.676 0.304,-0.667 0.288,-0.65C0.271,-0.632 0.263,-0.611 0.263,-0.586C0.263,-0.574 0.266,-0.562 0.271,-0.549C0.276,-0.536 0.281,-0.526 0.285,-0.517C0.291,-0.508 0.294,-0.503 0.295,-0.5L0.672,-0ZM0.306,-0.348C0.287,-0.348 0.269,-0.344 0.251,-0.337C0.233,-0.33 0.217,-0.32 0.203,-0.307C0.189,-0.294 0.178,-0.28 0.17,-0.263C0.161,-0.246 0.157,-0.227 0.157,-0.208C0.157,-0.182 0.164,-0.159 0.178,-0.14C0.191,-0.12 0.21,-0.105 0.233,-0.094C0.256,-0.083 0.281,-0.077 0.308,-0.077C0.333,-0.077 0.356,-0.081 0.375,-0.089C0.394,-0.096 0.411,-0.107 0.425,-0.119C0.439,-0.133 0.449,-0.147 0.456,-0.162L0.518,-0.108C0.5,-0.075 0.472,-0.047 0.435,-0.024C0.397,-0.001 0.351,0.01 0.296,0.01C0.251,0.01 0.21,0.001 0.174,-0.018C0.138,-0.037 0.11,-0.062 0.089,-0.094C0.068,-0.126 0.057,-0.162 0.057,-0.203C0.057,-0.234 0.064,-0.263 0.078,-0.29C0.092,-0.317 0.111,-0.34 0.135,-0.36C0.158,-0.379 0.185,-0.395 0.214,-0.406C0.243,-0.417 0.273,-0.423 0.304,-0.424L0.306,-0.348ZM0.557,-0.424L0.646,-0.424L0.529,-0.124L0.459,-0.168L0.557,-0.424Z" style="fill-rule:nonzero;"/>
                </g>
                <g transform="matrix(54.704,150.358,-150.358,54.704,3565.96,1693.74)">
                    <path d="M0.478,-0.594C0.453,-0.607 0.426,-0.618 0.397,-0.627C0.368,-0.636 0.339,-0.641 0.311,-0.641C0.272,-0.641 0.242,-0.632 0.219,-0.614C0.196,-0.596 0.184,-0.572 0.184,-0.542C0.184,-0.519 0.191,-0.5 0.206,-0.485C0.221,-0.469 0.24,-0.455 0.264,-0.444C0.288,-0.433 0.313,-0.422 0.339,-0.412C0.362,-0.403 0.384,-0.394 0.406,-0.383C0.428,-0.372 0.448,-0.359 0.466,-0.343C0.483,-0.327 0.497,-0.307 0.507,-0.284C0.518,-0.261 0.523,-0.232 0.523,-0.197C0.523,-0.159 0.514,-0.124 0.495,-0.093C0.475,-0.062 0.448,-0.037 0.413,-0.019C0.378,-0.001 0.336,0.008 0.287,0.008C0.255,0.008 0.225,0.004 0.196,-0.003C0.167,-0.01 0.14,-0.02 0.115,-0.032C0.09,-0.043 0.068,-0.055 0.049,-0.068L0.092,-0.144C0.108,-0.133 0.126,-0.122 0.147,-0.112C0.168,-0.101 0.189,-0.093 0.212,-0.086C0.235,-0.08 0.257,-0.077 0.278,-0.077C0.301,-0.077 0.323,-0.081 0.345,-0.09C0.368,-0.098 0.386,-0.111 0.401,-0.128C0.416,-0.145 0.423,-0.168 0.423,-0.197C0.423,-0.222 0.417,-0.242 0.404,-0.259C0.391,-0.275 0.373,-0.289 0.352,-0.301C0.331,-0.312 0.308,-0.323 0.284,-0.332C0.261,-0.341 0.238,-0.35 0.215,-0.361C0.192,-0.371 0.17,-0.384 0.15,-0.399C0.13,-0.413 0.114,-0.432 0.102,-0.454C0.09,-0.476 0.084,-0.503 0.084,-0.534C0.084,-0.572 0.093,-0.605 0.112,-0.633C0.13,-0.662 0.155,-0.684 0.187,-0.701C0.219,-0.717 0.256,-0.726 0.297,-0.727C0.344,-0.727 0.385,-0.721 0.421,-0.71C0.456,-0.699 0.488,-0.685 0.515,-0.668L0.478,-0.594Z" style="fill-rule:nonzero;"/>
                </g>
                <g transform="matrix(29.463,157.264,-157.264,29.463,3597.56,1780.65)">
                    <path d="M0.051,-0.723L0.531,-0.723L0.531,-0.63L0.337,-0.63L0.337,-0L0.24,-0L0.24,-0.63L0.051,-0.63L0.051,-0.723Z" style="fill-rule:nonzero;"/>
                </g>
                <g transform="matrix(0.761109,159.998,-159.998,0.761109,3615.66,1872.15)">
                    <path d="M0.296,-0.723C0.333,-0.723 0.367,-0.718 0.398,-0.709C0.429,-0.699 0.456,-0.685 0.478,-0.666C0.501,-0.647 0.52,-0.623 0.533,-0.596C0.546,-0.568 0.552,-0.536 0.552,-0.499C0.552,-0.47 0.548,-0.442 0.54,-0.415C0.531,-0.388 0.517,-0.363 0.498,-0.341C0.479,-0.318 0.454,-0.3 0.423,-0.286C0.392,-0.273 0.353,-0.266 0.308,-0.266L0.201,-0.266L0.201,-0L0.104,-0L0.104,-0.723L0.296,-0.723ZM0.306,-0.359C0.335,-0.359 0.359,-0.363 0.378,-0.372C0.397,-0.381 0.411,-0.392 0.422,-0.406C0.433,-0.419 0.44,-0.434 0.445,-0.45C0.45,-0.466 0.452,-0.481 0.452,-0.495C0.452,-0.51 0.45,-0.525 0.445,-0.541C0.44,-0.556 0.432,-0.571 0.421,-0.584C0.409,-0.597 0.395,-0.608 0.378,-0.617C0.36,-0.626 0.338,-0.63 0.313,-0.63L0.201,-0.63L0.201,-0.359L0.306,-0.359ZM0.425,-0.304L0.614,-0L0.502,-0L0.31,-0.301L0.425,-0.304Z" style="fill-rule:nonzero;"/>
                </g>
                <g transform="matrix(-27.7947,157.567,-157.567,-27.7947,3616.84,1977.86)">
                    <path d="M0.104,-0.723L0.574,-0.723L0.574,-0.63L0.201,-0.63L0.201,-0.41L0.534,-0.41L0.534,-0.317L0.201,-0.317L0.201,-0.093L0.588,-0.093L0.588,-0L0.104,-0L0.104,-0.723Z" style="fill-rule:nonzero;"/>
                </g>
                <g transform="matrix(-56.0911,149.846,-149.846,-56.0911,3599.2,2081.07)">
                    <path d="M0.104,-0.723L0.574,-0.723L0.574,-0.63L0.201,-0.63L0.201,-0.41L0.534,-0.41L0.534,-0.317L0.201,-0.317L0.201,-0.093L0.588,-0.093L0.588,-0L0.104,-0L0.104,-0.723Z" style="fill-rule:nonzero;"/>
                </g>
                <g transform="matrix(-80.3092,138.385,-138.385,-80.3092,3562.29,2178.98)">
                    <path d="M0.051,-0.723L0.531,-0.723L0.531,-0.63L0.337,-0.63L0.337,-0L0.24,-0L0.24,-0.63L0.051,-0.63L0.051,-0.723Z" style="fill-rule:nonzero;"/>
                </g>
                <g transform="matrix(-108.673,117.431,-117.431,-108.673,3518.35,2262.02)">
                    <path d="M0.041,-0.719L0.153,-0.719L0.349,-0.167L0.332,-0.174L0.475,-0.544L0.52,-0.413L0.329,0.033L0.041,-0.719ZM0.388,-0.719L0.485,-0.719L0.697,-0.175L0.677,-0.179L0.864,-0.719L0.967,-0.719L0.683,0.032L0.388,-0.719Z" style="fill-rule:nonzero;"/>
                </g>
                <g transform="matrix(-133.101,88.7933,-88.7933,-133.101,3406.5,2378.46)">
                    <path d="M0.104,-0.723L0.574,-0.723L0.574,-0.63L0.201,-0.63L0.201,-0.41L0.534,-0.41L0.534,-0.317L0.201,-0.317L0.201,-0.093L0.588,-0.093L0.588,-0L0.104,-0L0.104,-0.723Z" style="fill-rule:nonzero;"/>
                </g>
                <g transform="matrix(-147.105,62.9297,-62.9297,-147.105,3319.59,2437.19)">
                    <path d="M0.032,-0L0.348,-0.753L0.354,-0.753L0.669,-0L0.558,-0L0.322,-0.601L0.391,-0.646L0.127,-0L0.032,-0ZM0.217,-0.274L0.486,-0.274L0.518,-0.19L0.189,-0.19L0.217,-0.274Z" style="fill-rule:nonzero;"/>
                </g>
                <g transform="matrix(-156.669,32.478,-32.478,-156.669,3216.09,2481.57)">
                    <path d="M0.296,-0.723C0.333,-0.723 0.367,-0.718 0.398,-0.709C0.429,-0.699 0.456,-0.685 0.478,-0.666C0.501,-0.647 0.52,-0.623 0.533,-0.596C0.546,-0.568 0.552,-0.536 0.552,-0.499C0.552,-0.47 0.548,-0.442 0.54,-0.415C0.531,-0.388 0.517,-0.363 0.498,-0.341C0.479,-0.318 0.454,-0.3 0.423,-0.286C0.392,-0.273 0.353,-0.266 0.308,-0.266L0.201,-0.266L0.201,-0L0.104,-0L0.104,-0.723L0.296,-0.723ZM0.306,-0.359C0.335,-0.359 0.359,-0.363 0.378,-0.372C0.397,-0.381 0.411,-0.392 0.422,-0.406C0.433,-0.419 0.44,-0.434 0.445,-0.45C0.45,-0.466 0.452,-0.481 0.452,-0.495C0.452,-0.51 0.45,-0.525 0.445,-0.541C0.44,-0.556 0.432,-0.571 0.421,-0.584C0.409,-0.597 0.395,-0.608 0.378,-0.617C0.36,-0.626 0.338,-0.63 0.313,-0.63L0.201,-0.63L0.201,-0.359L0.306,-0.359ZM0.425,-0.304L0.614,-0L0.502,-0L0.31,-0.301L0.425,-0.304Z" style="fill-rule:nonzero;"/>
                </g>
            </g>
        </g>
    </g>
</svg>
