<?xml version="1.0" encoding="UTF-8" standalone="no"?>
<!DOCTYPE svg PUBLIC "-//W3C//DTD SVG 1.1//EN" "http://www.w3.org/Graphics/SVG/1.1/DTD/svg11.dtd">
<svg width="100%" height="100%" viewBox="0 0 582 60" version="1.1" xmlns="http://www.w3.org/2000/svg" xmlns:xlink="http://www.w3.org/1999/xlink" xml:space="preserve" xmlns:serif="http://www.serif.com/" style="fill-rule:evenodd;clip-rule:evenodd;stroke-linejoin:round;stroke-miterlimit:2;">
    <g id="paypal-icon" serif:id="paypal icon" transform="matrix(0.605242,0,0,0.063696,259.368,-16.5625)">
        <rect x="-428.536" y="260.024" width="961.599" height="941.975" style="fill:none;"/>
        <g id="path" transform="matrix(1.65196,0,0,15.697,86.11,-7091.14)">
            <g transform="matrix(56.25,0,0,56.25,-237.659,514.493)">
                <path d="M0.249,0.012L0.019,-0.414L0.129,-0.414L0.285,-0.085L0.228,-0.087L0.371,-0.414L0.475,-0.414L0.254,0.012L0.249,0.012Z" style="fill-rule:nonzero;"/>
            </g>
            <g transform="matrix(56.25,0,0,56.25,-209.872,514.493)">
                <path d="M0.081,-0.414L0.174,-0.414L0.174,-0L0.081,-0L0.081,-0.414ZM0.074,-0.564C0.074,-0.579 0.08,-0.591 0.092,-0.601C0.103,-0.611 0.116,-0.616 0.13,-0.616C0.144,-0.616 0.157,-0.611 0.168,-0.601C0.179,-0.591 0.184,-0.579 0.184,-0.564C0.184,-0.549 0.179,-0.536 0.168,-0.527C0.157,-0.517 0.144,-0.512 0.13,-0.512C0.116,-0.512 0.103,-0.517 0.092,-0.527C0.08,-0.537 0.074,-0.549 0.074,-0.564Z" style="fill-rule:nonzero;"/>
            </g>
            <g transform="matrix(56.25,0,0,56.25,-195.584,514.493)">
                <path d="M0.253,0.01C0.214,0.01 0.179,0.002 0.148,-0.015C0.116,-0.032 0.091,-0.056 0.073,-0.089C0.054,-0.121 0.045,-0.16 0.045,-0.207C0.045,-0.253 0.055,-0.293 0.074,-0.327C0.093,-0.36 0.119,-0.386 0.152,-0.404C0.184,-0.422 0.219,-0.431 0.258,-0.431C0.297,-0.431 0.329,-0.422 0.356,-0.405C0.383,-0.387 0.403,-0.366 0.417,-0.342L0.411,-0.326L0.42,-0.414L0.506,-0.414L0.506,-0L0.413,-0L0.413,-0.108L0.423,-0.084C0.42,-0.077 0.414,-0.069 0.406,-0.059C0.397,-0.048 0.385,-0.038 0.37,-0.027C0.355,-0.016 0.337,-0.008 0.318,-0.001C0.299,0.006 0.277,0.01 0.253,0.01ZM0.278,-0.067C0.301,-0.067 0.322,-0.071 0.341,-0.08C0.36,-0.089 0.375,-0.101 0.388,-0.117C0.4,-0.132 0.408,-0.151 0.413,-0.173L0.413,-0.254C0.408,-0.274 0.398,-0.292 0.385,-0.307C0.372,-0.322 0.356,-0.333 0.337,-0.342C0.318,-0.35 0.298,-0.354 0.275,-0.354C0.25,-0.354 0.228,-0.348 0.207,-0.336C0.186,-0.324 0.17,-0.307 0.158,-0.286C0.145,-0.265 0.139,-0.24 0.139,-0.211C0.139,-0.184 0.145,-0.16 0.158,-0.138C0.171,-0.116 0.188,-0.099 0.209,-0.086C0.23,-0.073 0.253,-0.067 0.278,-0.067Z" style="fill-rule:nonzero;"/>
            </g>
            <g transform="matrix(56.25,0,0,56.25,-144.847,514.493)">
                <path d="M0.297,-0.723C0.35,-0.723 0.395,-0.714 0.432,-0.697C0.469,-0.679 0.498,-0.653 0.519,-0.62C0.539,-0.587 0.549,-0.546 0.549,-0.499C0.549,-0.47 0.545,-0.442 0.536,-0.414C0.527,-0.387 0.514,-0.362 0.495,-0.34C0.475,-0.317 0.451,-0.299 0.42,-0.286C0.389,-0.273 0.352,-0.266 0.308,-0.266L0.201,-0.266L0.201,-0L0.104,-0L0.104,-0.723L0.297,-0.723ZM0.307,-0.359C0.336,-0.359 0.359,-0.364 0.378,-0.373C0.397,-0.382 0.411,-0.394 0.422,-0.408C0.433,-0.423 0.44,-0.438 0.445,-0.454C0.45,-0.47 0.452,-0.484 0.452,-0.497C0.452,-0.512 0.45,-0.527 0.445,-0.543C0.44,-0.558 0.433,-0.573 0.422,-0.586C0.41,-0.599 0.396,-0.609 0.379,-0.618C0.361,-0.626 0.339,-0.63 0.313,-0.63L0.201,-0.63L0.201,-0.359L0.307,-0.359Z" style="fill-rule:nonzero;"/>
            </g>
            <g transform="matrix(56.25,0,0,56.25,-111.378,514.493)">
                <path d="M0.253,0.01C0.214,0.01 0.179,0.002 0.148,-0.015C0.116,-0.032 0.091,-0.056 0.073,-0.089C0.054,-0.121 0.045,-0.16 0.045,-0.207C0.045,-0.253 0.055,-0.293 0.074,-0.327C0.093,-0.36 0.119,-0.386 0.152,-0.404C0.184,-0.422 0.219,-0.431 0.258,-0.431C0.297,-0.431 0.329,-0.422 0.356,-0.405C0.383,-0.387 0.403,-0.366 0.417,-0.342L0.411,-0.326L0.42,-0.414L0.506,-0.414L0.506,-0L0.413,-0L0.413,-0.108L0.423,-0.084C0.42,-0.077 0.414,-0.069 0.406,-0.059C0.397,-0.048 0.385,-0.038 0.37,-0.027C0.355,-0.016 0.337,-0.008 0.318,-0.001C0.299,0.006 0.277,0.01 0.253,0.01ZM0.278,-0.067C0.301,-0.067 0.322,-0.071 0.341,-0.08C0.36,-0.089 0.375,-0.101 0.388,-0.117C0.4,-0.132 0.408,-0.151 0.413,-0.173L0.413,-0.254C0.408,-0.274 0.398,-0.292 0.385,-0.307C0.372,-0.322 0.356,-0.333 0.337,-0.342C0.318,-0.35 0.298,-0.354 0.275,-0.354C0.25,-0.354 0.228,-0.348 0.207,-0.336C0.186,-0.324 0.17,-0.307 0.158,-0.286C0.145,-0.265 0.139,-0.24 0.139,-0.211C0.139,-0.184 0.145,-0.16 0.158,-0.138C0.171,-0.116 0.188,-0.099 0.209,-0.086C0.23,-0.073 0.253,-0.067 0.278,-0.067Z" style="fill-rule:nonzero;"/>
            </g>
            <g transform="matrix(56.25,0,0,56.25,-78.4157,514.493)">
                <path d="M0.116,0.199L0.389,-0.414L0.475,-0.414L0.208,0.199L0.116,0.199ZM0.218,0.003L0.019,-0.414L0.124,-0.414L0.291,-0.044L0.218,0.003Z" style="fill-rule:nonzero;"/>
            </g>
            <g transform="matrix(56.25,0,0,56.25,-50.6282,514.493)">
                <path d="M0.325,0.01C0.294,0.01 0.264,0.003 0.234,-0.012C0.205,-0.027 0.183,-0.046 0.167,-0.071L0.173,-0.1L0.173,0.199L0.081,0.199L0.081,-0.42L0.161,-0.42L0.174,-0.314L0.164,-0.343C0.184,-0.368 0.209,-0.389 0.24,-0.406C0.271,-0.423 0.305,-0.431 0.343,-0.431C0.382,-0.431 0.417,-0.422 0.448,-0.403C0.478,-0.384 0.503,-0.358 0.521,-0.325C0.539,-0.292 0.548,-0.253 0.548,-0.208C0.548,-0.163 0.538,-0.125 0.519,-0.092C0.5,-0.059 0.473,-0.034 0.44,-0.017C0.406,0.001 0.368,0.01 0.325,0.01ZM0.307,-0.064C0.334,-0.064 0.358,-0.07 0.381,-0.083C0.403,-0.095 0.421,-0.112 0.434,-0.134C0.447,-0.155 0.454,-0.18 0.454,-0.207C0.454,-0.235 0.448,-0.26 0.435,-0.281C0.422,-0.303 0.406,-0.32 0.385,-0.333C0.364,-0.346 0.34,-0.352 0.314,-0.352C0.29,-0.352 0.268,-0.347 0.249,-0.338C0.23,-0.329 0.214,-0.316 0.201,-0.3C0.188,-0.283 0.179,-0.264 0.174,-0.243L0.174,-0.174C0.177,-0.153 0.185,-0.134 0.198,-0.117C0.211,-0.1 0.227,-0.087 0.246,-0.078C0.265,-0.069 0.285,-0.064 0.307,-0.064Z" style="fill-rule:nonzero;"/>
            </g>
            <g transform="matrix(56.25,0,0,56.25,-17.272,514.493)">
                <path d="M0.253,0.01C0.214,0.01 0.179,0.002 0.148,-0.015C0.116,-0.032 0.091,-0.056 0.073,-0.089C0.054,-0.121 0.045,-0.16 0.045,-0.207C0.045,-0.253 0.055,-0.293 0.074,-0.327C0.093,-0.36 0.119,-0.386 0.152,-0.404C0.184,-0.422 0.219,-0.431 0.258,-0.431C0.297,-0.431 0.329,-0.422 0.356,-0.405C0.383,-0.387 0.403,-0.366 0.417,-0.342L0.411,-0.326L0.42,-0.414L0.506,-0.414L0.506,-0L0.413,-0L0.413,-0.108L0.423,-0.084C0.42,-0.077 0.414,-0.069 0.406,-0.059C0.397,-0.048 0.385,-0.038 0.37,-0.027C0.355,-0.016 0.337,-0.008 0.318,-0.001C0.299,0.006 0.277,0.01 0.253,0.01ZM0.278,-0.067C0.301,-0.067 0.322,-0.071 0.341,-0.08C0.36,-0.089 0.375,-0.101 0.388,-0.117C0.4,-0.132 0.408,-0.151 0.413,-0.173L0.413,-0.254C0.408,-0.274 0.398,-0.292 0.385,-0.307C0.372,-0.322 0.356,-0.333 0.337,-0.342C0.318,-0.35 0.298,-0.354 0.275,-0.354C0.25,-0.354 0.228,-0.348 0.207,-0.336C0.186,-0.324 0.17,-0.307 0.158,-0.286C0.145,-0.265 0.139,-0.24 0.139,-0.211C0.139,-0.184 0.145,-0.16 0.158,-0.138C0.171,-0.116 0.188,-0.099 0.209,-0.086C0.23,-0.073 0.253,-0.067 0.278,-0.067Z" style="fill-rule:nonzero;"/>
            </g>
            <g transform="matrix(56.25,0,0,56.25,15.6905,514.493)">
                <rect x="0.081" y="-0.774" width="0.093" height="0.774" style="fill-rule:nonzero;"/>
            </g>
            <g transform="matrix(56.25,0,0,56.25,47.753,514.493)">
                <path d="M0.333,0.01C0.295,0.01 0.262,0.002 0.233,-0.015C0.203,-0.032 0.18,-0.053 0.163,-0.078L0.174,-0.107L0.174,-0L0.081,-0L0.081,-0.774L0.173,-0.774L0.173,-0.319L0.17,-0.354C0.187,-0.377 0.211,-0.395 0.242,-0.409C0.273,-0.424 0.307,-0.431 0.345,-0.431C0.382,-0.431 0.416,-0.422 0.447,-0.404C0.478,-0.386 0.502,-0.361 0.521,-0.329C0.539,-0.296 0.548,-0.258 0.548,-0.213C0.548,-0.166 0.538,-0.126 0.519,-0.093C0.499,-0.06 0.473,-0.034 0.44,-0.017C0.407,0.001 0.372,0.01 0.333,0.01ZM0.314,-0.069C0.341,-0.069 0.365,-0.075 0.386,-0.088C0.407,-0.101 0.424,-0.118 0.436,-0.14C0.448,-0.161 0.454,-0.186 0.454,-0.214C0.454,-0.241 0.448,-0.265 0.436,-0.286C0.423,-0.308 0.406,-0.325 0.386,-0.338C0.365,-0.351 0.341,-0.357 0.314,-0.357C0.291,-0.357 0.27,-0.353 0.251,-0.344C0.232,-0.335 0.215,-0.324 0.202,-0.309C0.189,-0.294 0.179,-0.276 0.174,-0.256L0.174,-0.173C0.179,-0.153 0.188,-0.135 0.201,-0.119C0.214,-0.104 0.23,-0.092 0.249,-0.083C0.268,-0.074 0.29,-0.069 0.314,-0.069Z" style="fill-rule:nonzero;"/>
            </g>
            <g transform="matrix(56.25,0,0,56.25,81.1093,514.493)">
                <path d="M0.273,0.01C0.226,0.01 0.185,0 0.151,-0.019C0.117,-0.038 0.091,-0.064 0.073,-0.097C0.054,-0.13 0.045,-0.167 0.045,-0.21C0.045,-0.251 0.055,-0.288 0.076,-0.321C0.097,-0.354 0.124,-0.381 0.159,-0.401C0.194,-0.421 0.232,-0.431 0.275,-0.431C0.33,-0.431 0.375,-0.415 0.411,-0.383C0.447,-0.351 0.471,-0.307 0.484,-0.251L0.143,-0.131L0.121,-0.186L0.401,-0.288L0.381,-0.275C0.373,-0.297 0.36,-0.316 0.341,-0.333C0.322,-0.349 0.298,-0.357 0.268,-0.357C0.243,-0.357 0.22,-0.351 0.2,-0.339C0.18,-0.326 0.164,-0.309 0.153,-0.288C0.142,-0.267 0.136,-0.242 0.136,-0.215C0.136,-0.186 0.142,-0.161 0.154,-0.14C0.166,-0.118 0.183,-0.101 0.203,-0.089C0.225,-0.076 0.248,-0.07 0.275,-0.07C0.293,-0.07 0.311,-0.073 0.328,-0.08C0.344,-0.087 0.36,-0.095 0.375,-0.106L0.418,-0.037C0.397,-0.023 0.374,-0.012 0.348,-0.003C0.323,0.006 0.298,0.01 0.273,0.01Z" style="fill-rule:nonzero;"/>
            </g>
            <g transform="matrix(56.25,0,0,56.25,110.359,514.493)">
                <path d="M0.119,-0.338C0.098,-0.338 0.081,-0.344 0.066,-0.357C0.051,-0.37 0.044,-0.389 0.044,-0.414L0.044,-0.453L0.115,-0.453L0.115,-0.44C0.115,-0.429 0.118,-0.422 0.123,-0.419C0.128,-0.416 0.137,-0.414 0.149,-0.414L0.414,-0.414L0.166,-0.057L0.148,-0.077L0.411,-0.077L0.411,-0L0.028,-0L0.281,-0.364L0.297,-0.338L0.119,-0.338Z" style="fill-rule:nonzero;"/>
            </g>
            <g transform="matrix(56.25,0,0,56.25,136.403,514.493)">
                <path d="M0.253,0.01C0.214,0.01 0.179,0.002 0.148,-0.015C0.116,-0.032 0.091,-0.056 0.073,-0.089C0.054,-0.121 0.045,-0.16 0.045,-0.207C0.045,-0.253 0.055,-0.293 0.074,-0.327C0.093,-0.36 0.119,-0.386 0.152,-0.404C0.184,-0.422 0.219,-0.431 0.258,-0.431C0.297,-0.431 0.329,-0.422 0.356,-0.405C0.383,-0.387 0.403,-0.366 0.417,-0.342L0.411,-0.326L0.42,-0.414L0.506,-0.414L0.506,-0L0.413,-0L0.413,-0.108L0.423,-0.084C0.42,-0.077 0.414,-0.069 0.406,-0.059C0.397,-0.048 0.385,-0.038 0.37,-0.027C0.355,-0.016 0.337,-0.008 0.318,-0.001C0.299,0.006 0.277,0.01 0.253,0.01ZM0.278,-0.067C0.301,-0.067 0.322,-0.071 0.341,-0.08C0.36,-0.089 0.375,-0.101 0.388,-0.117C0.4,-0.132 0.408,-0.151 0.413,-0.173L0.413,-0.254C0.408,-0.274 0.398,-0.292 0.385,-0.307C0.372,-0.322 0.356,-0.333 0.337,-0.342C0.318,-0.35 0.298,-0.354 0.275,-0.354C0.25,-0.354 0.228,-0.348 0.207,-0.336C0.186,-0.324 0.17,-0.307 0.158,-0.286C0.145,-0.265 0.139,-0.24 0.139,-0.211C0.139,-0.184 0.145,-0.16 0.158,-0.138C0.171,-0.116 0.188,-0.099 0.209,-0.086C0.23,-0.073 0.253,-0.067 0.278,-0.067Z" style="fill-rule:nonzero;"/>
            </g>
            <g transform="matrix(56.25,0,0,56.25,169.366,514.493)">
                <path d="M0.081,-0L0.081,-0.774L0.172,-0.774L0.172,-0.318L0.17,-0.335C0.184,-0.362 0.205,-0.385 0.234,-0.403C0.264,-0.421 0.298,-0.43 0.337,-0.43C0.376,-0.43 0.408,-0.419 0.434,-0.396C0.459,-0.373 0.471,-0.343 0.472,-0.306L0.472,-0L0.378,-0L0.378,-0.273C0.377,-0.296 0.371,-0.314 0.359,-0.329C0.346,-0.343 0.327,-0.35 0.301,-0.35C0.277,-0.35 0.255,-0.343 0.236,-0.33C0.217,-0.316 0.202,-0.297 0.191,-0.274C0.18,-0.251 0.174,-0.224 0.174,-0.194L0.174,-0L0.081,-0Z" style="fill-rule:nonzero;"/>
            </g>
            <g transform="matrix(56.25,0,0,56.25,200.472,514.493)">
                <rect x="0.081" y="-0.774" width="0.093" height="0.774" style="fill-rule:nonzero;"/>
            </g>
            <g transform="matrix(56.25,0,0,56.25,214.759,514.493)">
                <path d="M0.273,0.01C0.226,0.01 0.185,0 0.151,-0.019C0.117,-0.038 0.091,-0.064 0.073,-0.097C0.054,-0.13 0.045,-0.167 0.045,-0.21C0.045,-0.251 0.055,-0.288 0.076,-0.321C0.097,-0.354 0.124,-0.381 0.159,-0.401C0.194,-0.421 0.232,-0.431 0.275,-0.431C0.33,-0.431 0.375,-0.415 0.411,-0.383C0.447,-0.351 0.471,-0.307 0.484,-0.251L0.143,-0.131L0.121,-0.186L0.401,-0.288L0.381,-0.275C0.373,-0.297 0.36,-0.316 0.341,-0.333C0.322,-0.349 0.298,-0.357 0.268,-0.357C0.243,-0.357 0.22,-0.351 0.2,-0.339C0.18,-0.326 0.164,-0.309 0.153,-0.288C0.142,-0.267 0.136,-0.242 0.136,-0.215C0.136,-0.186 0.142,-0.161 0.154,-0.14C0.166,-0.118 0.183,-0.101 0.203,-0.089C0.225,-0.076 0.248,-0.07 0.275,-0.07C0.293,-0.07 0.311,-0.073 0.328,-0.08C0.344,-0.087 0.36,-0.095 0.375,-0.106L0.418,-0.037C0.397,-0.023 0.374,-0.012 0.348,-0.003C0.323,0.006 0.298,0.01 0.273,0.01Z" style="fill-rule:nonzero;"/>
            </g>
            <g transform="matrix(56.25,0,0,56.25,244.009,514.493)">
                <path d="M0.164,-0.414L0.172,-0.313L0.168,-0.329C0.181,-0.36 0.203,-0.384 0.233,-0.403C0.263,-0.421 0.298,-0.43 0.337,-0.43C0.376,-0.43 0.408,-0.419 0.434,-0.396C0.459,-0.373 0.471,-0.343 0.472,-0.306L0.472,-0L0.378,-0L0.378,-0.273C0.377,-0.296 0.371,-0.314 0.359,-0.329C0.346,-0.343 0.327,-0.35 0.301,-0.35C0.277,-0.35 0.255,-0.343 0.236,-0.33C0.217,-0.317 0.202,-0.298 0.191,-0.275C0.18,-0.252 0.174,-0.225 0.174,-0.194L0.174,-0L0.081,-0L0.081,-0.414L0.164,-0.414Z" style="fill-rule:nonzero;"/>
            </g>
            <g transform="matrix(1.00016,0,0,1.00016,-311.536,468.316)">
                <path d="M12.364,53.091L12.029,55.217C11.711,57.249 13.28,59.079 15.331,59.079L24.064,59.079C26.099,59.079 27.832,57.617 28.184,55.623L28.283,55.105L29.923,44.697L30.033,44.098C30.034,44.089 30.041,44.082 30.05,44.082C30.05,44.082 31.356,44.082 31.356,44.082C36.059,44.082 40.235,43.072 43.52,40.737C46.855,38.366 49.329,34.629 50.421,29.021C51.375,24.125 50.716,20.066 48.193,17.191C48.192,17.19 48.191,17.189 48.19,17.188C47.69,16.62 47.117,16.109 46.475,15.655C46.887,11.454 45.945,8.456 43.529,5.701C43.528,5.701 43.528,5.7 43.528,5.7C40.706,2.488 35.677,0.921 29.161,0.921L12.379,0.921C10.172,0.921 8.291,2.527 7.95,4.71C7.95,4.707 0.96,49.015 0.96,49.015C0.96,49.016 0.96,49.016 0.96,49.016C0.623,51.16 2.279,53.091 4.44,53.091L12.364,53.091ZM45.527,20.546C46.844,22.503 46.931,25.146 46.331,28.225C45.488,32.558 43.683,35.509 41.106,37.341C38.48,39.208 35.115,39.916 31.356,39.916L30.05,39.916C27.997,39.916 26.248,41.403 25.92,43.432C25.922,43.415 25.82,43.969 25.82,43.969C25.817,43.986 25.814,44.004 25.811,44.022L24.173,54.42C24.173,54.42 24.073,54.912 24.064,54.912L16.295,54.912L16.859,51.332C16.859,51.332 19.38,35.345 19.38,35.345C19.404,35.192 19.531,35.077 19.686,35.077C19.686,35.077 24.609,35.077 24.609,35.077C29.916,35.077 34.632,33.945 38.34,31.309C41.591,28.998 44.111,25.531 45.527,20.546ZM28.184,55.623L28.155,55.751C28.166,55.709 28.176,55.666 28.184,55.623ZM42.39,13.768C42.047,13.67 41.695,13.581 41.334,13.5C41.33,13.499 41.326,13.498 41.322,13.497C40.925,13.41 40.518,13.333 40.1,13.266C38.671,13.035 37.106,12.923 35.428,12.923L22.274,12.923C21.63,12.923 21.022,13.068 20.47,13.332C20.47,13.332 20.469,13.332 20.469,13.332C19.259,13.91 18.36,15.057 18.142,16.46L18.143,16.454L15.345,34.178L13.021,48.924L5.193,48.924L12.066,5.353C12.09,5.2 12.224,5.088 12.379,5.088C12.379,5.088 29.161,5.088 29.161,5.088C34.208,5.088 38.211,5.961 40.396,8.449C41.747,9.989 42.36,11.656 42.39,13.768ZM41.882,17.972C41.846,17.96 41.81,17.947 41.774,17.935C41.629,17.889 41.482,17.843 41.333,17.799C41.039,17.714 40.736,17.636 40.425,17.566C40.105,17.496 39.776,17.434 39.439,17.38C39.438,17.38 39.437,17.379 39.436,17.379C38.21,17.181 36.867,17.089 35.428,17.089C35.428,17.089 22.274,17.089 22.274,17.089C22.271,17.089 22.268,17.09 22.265,17.092C22.263,17.093 22.26,17.095 22.26,17.099C22.259,17.1 22.259,17.102 22.259,17.104L20.079,30.911L24.609,30.911C28.973,30.911 32.877,30.08 35.926,27.913C38.792,25.876 40.847,22.655 41.882,17.972Z"/>
            </g>
        </g>
    </g>
</svg>
