<svg xmlns="http://www.w3.org/2000/svg" fill-rule="evenodd" stroke-linejoin="round" stroke-miterlimit="2" clip-rule="evenodd" viewBox="0 0 582 60"><path fill="none" d="M0 0h582v60H0z"/><path fill="#fff" fill-rule="nonzero" d="M87.87 46.844L74.933 22.885h6.187l8.773 18.503-3.206-.112 8.043-18.39h5.849L88.15 46.843h-.28zM106.203 22.885h5.23V46.17h-5.23V22.885zm-.393-8.436c0-.843.337-1.518 1.012-2.08.619-.563 1.35-.844 2.137-.844.788 0 1.519.28 2.137.843.619.563.9 1.238.9 2.081 0 .844-.281 1.575-.9 2.081-.618.562-1.35.844-2.137.844-.787 0-1.518-.282-2.137-.844-.675-.562-1.012-1.237-1.012-2.08zM130.162 46.731c-2.193 0-4.161-.45-5.905-1.406-1.8-.956-3.206-2.306-4.218-4.162-1.068-1.8-1.575-3.993-1.575-6.636 0-2.587.563-4.837 1.631-6.749 1.069-1.856 2.531-3.318 4.387-4.33 1.8-1.013 3.768-1.519 5.962-1.519 2.193 0 3.993.506 5.511 1.462 1.519 1.013 2.644 2.194 3.43 3.544l-.337.9.507-4.95h4.836V46.17h-5.23v-6.074l.562 1.35c-.168.393-.506.843-.956 1.406-.506.618-1.18 1.18-2.024 1.8-.844.618-1.856 1.068-2.925 1.462-1.068.393-2.306.618-3.656.618zm1.406-4.33c1.294 0 2.475-.225 3.544-.731a7.379 7.379 0 002.643-2.081c.675-.844 1.125-1.912 1.406-3.15v-4.555a7.257 7.257 0 00-1.575-2.981c-.73-.844-1.63-1.462-2.7-1.968-1.068-.45-2.193-.675-3.486-.675a7.48 7.48 0 00-3.825 1.012c-1.18.675-2.08 1.631-2.755 2.812-.732 1.181-1.069 2.587-1.069 4.218 0 1.519.337 2.868 1.069 4.106a8.405 8.405 0 002.868 2.924c1.18.731 2.474 1.069 3.88 1.069zM183.366 5.507c2.98 0 5.511.506 7.592 1.462 2.081 1.012 3.712 2.475 4.893 4.33 1.125 1.857 1.687 4.162 1.687 6.806 0 1.63-.225 3.206-.73 4.78-.507 1.519-1.238 2.925-2.307 4.162-1.124 1.294-2.474 2.306-4.218 3.037-1.743.731-3.824 1.125-6.299 1.125h-6.017v14.96h-5.456V5.507h10.855zm.562 20.471c1.631 0 2.925-.28 3.993-.787a6.746 6.746 0 002.475-1.968 8.585 8.585 0 001.293-2.587c.282-.9.394-1.688.394-2.419 0-.843-.112-1.687-.394-2.587-.28-.843-.675-1.687-1.293-2.418-.675-.731-1.462-1.294-2.419-1.8-1.012-.45-2.25-.675-3.711-.675h-6.3v15.241h5.962zM214.355 46.731c-2.194 0-4.162-.45-5.906-1.406-1.8-.956-3.205-2.306-4.218-4.162-1.068-1.8-1.574-3.993-1.574-6.636 0-2.587.562-4.837 1.63-6.749 1.07-1.856 2.531-3.318 4.387-4.33 1.8-1.013 3.768-1.519 5.962-1.519 2.193 0 3.993.506 5.511 1.462 1.519 1.013 2.644 2.194 3.431 3.544l-.337.9.506-4.95h4.837V46.17h-5.23v-6.074l.562 1.35c-.17.393-.507.843-.957 1.406-.506.618-1.18 1.18-2.024 1.8-.844.618-1.856 1.068-2.925 1.462-1.068.393-2.306.618-3.655.618zm1.406-4.33c1.293 0 2.474-.225 3.543-.731a7.379 7.379 0 002.643-2.081c.675-.844 1.125-1.912 1.406-3.15v-4.555a7.257 7.257 0 00-1.575-2.981c-.73-.844-1.63-1.462-2.7-1.968-1.068-.45-2.193-.675-3.486-.675a7.48 7.48 0 00-3.824 1.012c-1.182.675-2.081 1.631-2.756 2.812-.731 1.181-1.069 2.587-1.069 4.218 0 1.519.338 2.868 1.069 4.106a8.405 8.405 0 002.868 2.924c1.181.731 2.475 1.069 3.88 1.069zM239.607 57.36l15.353-34.475h4.837L244.78 57.361h-5.174zm5.736-11.022l-11.192-23.453h5.905l9.393 20.81-4.106 2.643zM279.144 46.731c-1.744 0-3.43-.393-5.118-1.237-1.631-.844-2.868-1.912-3.768-3.318l.337-1.631V57.36h-5.174V22.548h4.5l.73 5.961-.562-1.63c1.125-1.407 2.53-2.588 4.274-3.544 1.744-.956 3.656-1.406 5.793-1.406 2.193 0 4.162.506 5.905 1.575a11.865 11.865 0 014.106 4.387c1.012 1.856 1.518 4.049 1.518 6.58 0 2.53-.562 4.668-1.63 6.524-1.07 1.856-2.588 3.262-4.444 4.218-1.912 1.012-4.049 1.518-6.467 1.518zm-1.013-4.161c1.519 0 2.869-.338 4.162-1.07a7.684 7.684 0 002.981-2.867c.731-1.181 1.125-2.587 1.125-4.106 0-1.575-.338-2.98-1.069-4.162-.73-1.237-1.63-2.193-2.812-2.924-1.18-.731-2.53-1.069-3.993-1.069-1.35 0-2.587.281-3.656.788a7.724 7.724 0 00-2.7 2.137 8.434 8.434 0 00-1.518 3.205v3.881a6.772 6.772 0 001.35 3.206 7.281 7.281 0 002.7 2.193 7.875 7.875 0 003.43.788zM308.445 46.731c-2.193 0-4.162-.45-5.905-1.406-1.8-.956-3.206-2.306-4.218-4.162-1.069-1.8-1.575-3.993-1.575-6.636 0-2.587.562-4.837 1.631-6.749 1.069-1.856 2.53-3.318 4.387-4.33 1.8-1.013 3.768-1.519 5.961-1.519 2.194 0 3.993.506 5.512 1.462 1.518 1.013 2.643 2.194 3.43 3.544l-.337.9.506-4.95h4.837V46.17h-5.23v-6.074l.562 1.35c-.169.393-.506.843-.956 1.406-.506.618-1.181 1.18-2.025 1.8-.843.618-1.856 1.068-2.924 1.462-1.069.393-2.306.618-3.656.618zm1.406-4.33c1.294 0 2.475-.225 3.543-.731a7.379 7.379 0 002.644-2.081c.675-.844 1.124-1.912 1.406-3.15v-4.555a7.257 7.257 0 00-1.575-2.981c-.731-.844-1.631-1.462-2.7-1.968-1.068-.45-2.193-.675-3.487-.675a7.48 7.48 0 00-3.824 1.012c-1.181.675-2.08 1.631-2.756 2.812-.73 1.181-1.068 2.587-1.068 4.218 0 1.519.337 2.868 1.068 4.106a8.405 8.405 0 002.869 2.924c1.18.731 2.474 1.069 3.88 1.069zM331.729 2.639h5.23v43.53h-5.23zM377.959 46.731c-2.137 0-3.993-.45-5.624-1.406-1.688-.956-2.981-2.137-3.937-3.543l.618-1.63v6.017h-5.23V2.639h5.174v25.59l-.169-1.97c.957-1.293 2.306-2.305 4.05-3.093 1.743-.843 3.655-1.237 5.793-1.237 2.08 0 3.993.506 5.736 1.519 1.744 1.012 3.093 2.418 4.162 4.218 1.012 1.856 1.518 3.993 1.518 6.524 0 2.643-.562 4.893-1.63 6.749-1.125 1.855-2.588 3.318-4.444 4.274-1.855 1.012-3.824 1.518-6.017 1.518zm-1.069-4.443c1.519 0 2.868-.337 4.05-1.068 1.18-.731 2.137-1.687 2.812-2.925.674-1.18 1.012-2.587 1.012-4.162 0-1.518-.338-2.868-1.012-4.049a8.762 8.762 0 00-2.813-2.924c-1.18-.732-2.53-1.069-4.049-1.069-1.293 0-2.474.225-3.543.731s-2.025 1.125-2.756 1.969a7.257 7.257 0 00-1.575 2.98v4.668a7.734 7.734 0 001.519 3.037 8.121 8.121 0 002.7 2.025c1.068.506 2.305.787 3.655.787zM407.935 46.731c-2.643 0-4.95-.562-6.861-1.63-1.912-1.07-3.375-2.531-4.387-4.387-1.069-1.856-1.575-3.937-1.575-6.356 0-2.306.563-4.386 1.744-6.242 1.18-1.856 2.7-3.375 4.668-4.5 1.968-1.124 4.105-1.687 6.524-1.687 3.093 0 5.624.9 7.648 2.7 2.025 1.8 3.375 4.274 4.106 7.423l-19.178 6.75-1.238-3.094 15.748-5.736-1.125.73c-.45-1.237-1.181-2.305-2.25-3.261-1.068-.9-2.418-1.35-4.105-1.35-1.406 0-2.7.337-3.824 1.012-1.125.731-2.025 1.688-2.644 2.869-.618 1.18-.956 2.587-.956 4.105 0 1.631.338 3.037 1.012 4.218a7.517 7.517 0 002.756 2.868c1.238.732 2.531 1.07 4.05 1.07 1.012 0 2.024-.17 2.98-.563.9-.394 1.8-.844 2.644-1.463l2.418 3.881c-1.181.787-2.475 1.406-3.937 1.912a12.34 12.34 0 01-4.218.731zM428.519 27.16c-1.181 0-2.137-.338-2.98-1.069-.844-.731-1.238-1.8-1.238-3.206v-2.193h3.993v.731c0 .619.169 1.012.45 1.181.281.169.787.281 1.462.281h14.904l-13.948 20.078-1.012-1.125h14.791v4.33h-21.54l14.229-20.47.9 1.462h-10.011zM462.095 46.731c-2.194 0-4.162-.45-5.905-1.406-1.8-.956-3.206-2.306-4.218-4.162-1.069-1.8-1.575-3.993-1.575-6.636 0-2.587.562-4.837 1.63-6.749 1.07-1.856 2.532-3.318 4.388-4.33 1.8-1.013 3.768-1.519 5.961-1.519 2.193 0 3.993.506 5.512 1.462 1.518 1.013 2.643 2.194 3.43 3.544l-.337.9.506-4.95h4.837V46.17h-5.23v-6.074l.562 1.35c-.169.393-.506.843-.956 1.406-.506.618-1.181 1.18-2.025 1.8-.844.618-1.856 1.068-2.924 1.462-1.07.393-2.306.618-3.656.618zm1.406-4.33c1.293 0 2.474-.225 3.543-.731a7.379 7.379 0 002.643-2.081c.675-.844 1.125-1.912 1.406-3.15v-4.555a7.257 7.257 0 00-1.574-2.981c-.731-.844-1.631-1.462-2.7-1.968-1.068-.45-2.193-.675-3.487-.675a7.48 7.48 0 00-3.824 1.012c-1.181.675-2.081 1.631-2.756 2.812-.731 1.181-1.069 2.587-1.069 4.218 0 1.519.338 2.868 1.069 4.106a8.405 8.405 0 002.868 2.924c1.181.731 2.475 1.069 3.88 1.069zM485.379 46.169V2.639h5.118v25.645l-.113-.956c.788-1.518 1.969-2.812 3.6-3.824 1.687-1.012 3.6-1.519 5.793-1.519s3.993.619 5.455 1.913c1.406 1.293 2.08 2.98 2.137 5.061v17.21h-5.286V30.815c-.057-1.293-.394-2.306-1.069-3.15-.731-.787-1.8-1.18-3.262-1.18-1.35 0-2.587.393-3.656 1.124-1.068.788-1.912 1.856-2.53 3.15-.62 1.293-.957 2.812-.957 4.5v10.91h-5.23zM516.48 2.639h5.23v43.53h-5.23zM541.563 46.731c-2.644 0-4.95-.562-6.862-1.63-1.912-1.07-3.374-2.531-4.386-4.387-1.069-1.856-1.575-3.937-1.575-6.356 0-2.306.562-4.386 1.743-6.242 1.181-1.856 2.7-3.375 4.668-4.5 1.969-1.124 4.106-1.687 6.524-1.687 3.094 0 5.624.9 7.649 2.7 2.025 1.8 3.374 4.274 4.106 7.423l-19.178 6.75-1.238-3.094 15.748-5.736-1.125.73c-.45-1.237-1.181-2.305-2.25-3.261-1.068-.9-2.418-1.35-4.105-1.35-1.406 0-2.7.337-3.825 1.012-1.125.731-2.024 1.688-2.643 2.869-.619 1.18-.956 2.587-.956 4.105 0 1.631.337 3.037 1.012 4.218a7.517 7.517 0 002.756 2.868c1.237.732 2.53 1.07 4.05 1.07 1.012 0 2.024-.17 2.98-.563.9-.394 1.8-.844 2.643-1.463l2.419 3.881c-1.181.787-2.475 1.406-3.937 1.912a12.34 12.34 0 01-4.218.731zM564.678 22.885l.45 5.68-.225-.9c.73-1.743 1.968-3.093 3.655-4.161 1.688-1.012 3.656-1.519 5.85-1.519 2.193 0 3.992.619 5.455 1.913 1.406 1.293 2.08 2.98 2.137 5.061v17.21h-5.287V30.815c-.056-1.293-.393-2.306-1.068-3.15-.731-.787-1.8-1.18-3.262-1.18-1.35 0-2.587.393-3.656 1.124-1.068.732-1.912 1.8-2.53 3.094-.62 1.293-.957 2.812-.957 4.555v10.91h-5.23V22.886h4.668z"/><path fill="#fff" d="M12.365 53.09l-.335 2.126a3.343 3.343 0 003.302 3.862h8.733a4.183 4.183 0 004.12-3.456l.098-.518 1.64-10.408.11-.599a.017.017 0 01.017-.016h1.306c4.703 0 8.88-1.01 12.164-3.345 3.335-2.37 5.81-6.108 6.901-11.716.954-4.896.295-8.955-2.228-11.83l-.003-.003a9.852 9.852 0 00-1.715-1.533c.412-4.2-.53-7.199-2.946-9.954C40.705 2.486 35.676.92 29.16.92H12.38a4.482 4.482 0 00-4.43 3.79L.96 49.013v.001a3.525 3.525 0 003.48 4.075h7.925zm33.162-32.545c1.317 1.957 1.404 4.6.804 7.68-.843 4.332-2.648 7.283-5.225 9.115-2.626 1.867-5.99 2.575-9.75 2.575H30.05a4.182 4.182 0 00-4.13 3.516c.002-.017-.1.537-.1.537l-.009.053-1.637 10.398s-.1.492-.11.492h-7.768l.564-3.58 2.52-15.987a.312.312 0 01.307-.268h4.923c5.306 0 10.022-1.132 13.73-3.768 3.251-2.31 5.771-5.778 7.187-10.763zM28.184 55.622l-.029.128c.011-.042.021-.085.03-.128zM42.39 13.767a18.928 18.928 0 00-1.056-.268l-.012-.003a21.891 21.891 0 00-1.222-.23c-1.429-.232-2.994-.344-4.672-.344H22.275c-.644 0-1.252.145-1.804.41h-.001a4.173 4.173 0 00-2.327 3.127v-.006l-2.797 17.724-2.324 14.746H5.194l6.873-43.57a.316.316 0 01.313-.266H29.16c5.047 0 9.05.873 11.235 3.361 1.351 1.54 1.964 3.207 1.994 5.32zm-.508 4.204l-.108-.037a15.62 15.62 0 00-1.349-.369c-.32-.07-.649-.132-.986-.186h-.003c-1.226-.199-2.569-.29-4.008-.29H22.275a.016.016 0 00-.01.002c-.001.001-.004.003-.004.007l-.001.005-2.18 13.807h4.53c4.363 0 8.267-.83 11.316-2.998 2.866-2.037 4.921-5.258 5.956-9.94z"/></svg>