<svg xmlns="http://www.w3.org/2000/svg" fill-rule="evenodd" stroke-linejoin="round" stroke-miterlimit="2" clip-rule="evenodd" viewBox="0 0 24 24"><g transform="matrix(.75812 0 0 .75812 .03 .094)"><path fill="none" d="M-.04-.124h31.657v31.657H-.04z"/><clipPath id="a"><path d="M-.04-.124h31.657v31.657H-.04z"/></clipPath><g clip-path="url(#a)"><path fill-rule="nonzero" d="M22.756 7.264c.7 0 1.266.581 1.266 1.299v11.689c0 .717-.566 1.299-1.266 1.299H21.49c0 1.434-1.135 2.597-2.533 2.597s-2.532-1.163-2.532-2.597H7.56c0 1.434-1.134 2.597-2.533 2.597-1.398 0-2.533-1.163-2.533-2.597H1.23c-.7 0-1.266-.582-1.266-1.299V15.45c0-.257.074-.507.213-.72l1.944-2.992c.234-.36.63-.578 1.053-.578h5.654V8.563c0-.718.567-1.299 1.266-1.299h12.663zM5.028 20.252c-.7 0-1.266.581-1.266 1.299 0 .717.566 1.298 1.266 1.298.7 0 1.266-.581 1.266-1.298 0-.673-.498-1.226-1.136-1.293l-.13-.006zm13.93 0c-.7 0-1.267.581-1.267 1.299 0 .717.567 1.298 1.266 1.298.7 0 1.267-.581 1.267-1.298 0-.718-.567-1.299-1.267-1.299zm3.798-11.689H10.093v11.689l6.671-.001a2.52 2.52 0 012.193-1.298 2.52 2.52 0 012.193 1.298l1.606.001V8.563zm-13.93 9.091H1.23v2.598l1.606-.001a2.52 2.52 0 012.193-1.298 2.52 2.52 0 012.193 1.298l1.606.001v-2.598zm19.629 0c.349 0 .633.291.633.65a.645.645 0 01-.52.638l-.113.011h-2.533a.642.642 0 01-.633-.649c0-.32.223-.585.519-.64l.114-.01h2.533zM8.827 12.459H3.173l-1.944 2.99v.906h7.598v-3.896zm20.894 2.598c.35 0 .633.29.633.649a.647.647 0 01-.52.64l-.113.009h-3.8a.641.641 0 01-.632-.649c0-.319.223-.584.519-.638l.114-.011h3.799zm1.266-2.598c.35 0 .633.291.633.65a.645.645 0 01-.519.638l-.114.011h-5.065a.642.642 0 01-.633-.649c0-.32.223-.585.519-.64l.114-.01h5.065z"/></g></g></svg>