<svg xmlns="http://www.w3.org/2000/svg" fill="currentColor" aria-hidden="false" class="truckIcon" viewBox="0 0 24 24"><path d="M23.8 11.5l-3.36-3.74a.75.75 0 00-.56-.25h-3.37V4.5a.75.75 0 00-.75-.75H3.01a.75.75 0 00-.75.75v12c0 .42.33.76.75.76h1.47a3 3 0 006 0h6.03a3 3 0 006 0h.74c.41 0 .75-.34.75-.75V12a.75.75 0 00-.2-.5zM19.56 9l2.95 3.28v3.47h-.4a2.99 2.99 0 00-5.18 0h-.4V9h3.03zM3.75 5.25h11.26v10.51h-4.95a2.99 2.99 0 00-5.17 0H3.76V5.25zm3.72 13.5a1.5 1.5 0 110-3 1.5 1.5 0 010 3zm12.04 0a1.5 1.5 0 110-3 1.5 1.5 0 010 3z"/></svg>