<?xml version="1.0" encoding="UTF-8" standalone="no"?>
<!DOCTYPE svg PUBLIC "-//W3C//DTD SVG 1.1//EN" "http://www.w3.org/Graphics/SVG/1.1/DTD/svg11.dtd">
<svg width="100%" height="100%" viewBox="0 0 180 180" version="1.1" xmlns="http://www.w3.org/2000/svg" xmlns:xlink="http://www.w3.org/1999/xlink" xml:space="preserve" xmlns:serif="http://www.serif.com/" style="fill-rule:evenodd;clip-rule:evenodd;stroke-linejoin:round;stroke-miterlimit:2;">
    <g id="favicon" transform="matrix(0.931461,0,0,0.924444,6.82513,6.1161)">
        <rect x="-7.327" y="-6.616" width="193.245" height="194.712" style="fill:none;"/>
        <g id="circle" transform="matrix(1.07358,0,0,1.08173,-6.76046,-6.29864)">
            <circle cx="89.472" cy="89.707" r="89.707" style="fill:white;"/>
        </g>
        <g transform="matrix(0.124306,0,0,0.12525,-5.76137,7.617)">
            <path d="M607.347,1156.26C616.753,1189.96 646.345,1212.84 685.483,1222.87C732.296,1234.86 787.1,1234.66 823.936,1232.36C862.333,1229.96 928.684,1214.51 969.354,1184.48C1003.24,1159.47 1020.97,1125.43 1006.19,1082.82C994.908,1050.29 971.12,1031.51 936.81,1031.2C895.8,1030.84 848.078,1047.68 790.215,1059.6C727.545,1072.5 680.681,1077.07 644.413,1087.65C624.31,1093.51 614.066,1105.4 608.546,1119.46C604.363,1130.11 603.432,1142.23 607.347,1156.26ZM651.067,1142.83C649.123,1131.01 664.324,1122.42 675.065,1120.99C712.219,1116.03 744.541,1113.38 799,1105.22C843.529,1098.55 870.831,1092.23 902.95,1086.4C923.14,1082.74 937.944,1085.88 943.949,1103.2C950.649,1122.52 943.257,1135.26 927.657,1146.26C894.829,1169.4 859.558,1179.21 819.818,1184.79C777.977,1190.66 733.663,1188.13 691.892,1177.43C671.932,1172.32 653.963,1160.43 651.067,1142.83ZM426.634,453.167C419.258,447.06 419.266,423.837 411.901,403.778C403.787,381.681 395.409,365.525 376.085,354.876C356.944,344.328 329.61,338.734 290.936,355.352C243.642,375.674 230.113,396.278 221.379,423.994C208.269,465.604 221.2,503.981 237.21,528.502C261.022,564.971 289.726,570.72 321.281,567.423C332.083,566.295 350.756,561.492 358.207,566.768C367.718,573.504 366.946,604.678 368.418,616.71C372.787,652.429 385.153,684.045 424.484,693.612C440.809,697.583 460.395,700.102 460.395,700.102C455.796,713.815 453.752,722.248 455.108,738.198C456.519,754.785 459.267,761.09 465.751,772.527C437.36,779.215 404.657,788.671 381.289,808.911C356.009,830.808 341.598,865.156 353.819,917.558C367.465,976.072 414.989,989.904 479.924,997.132C562.869,1006.37 674.615,994.359 761.64,971.728C871.535,943.149 960.917,915.321 1023.5,864.673C1073.79,823.984 1093.43,771.447 1065.55,712.563C1051.38,682.635 1026.4,663.238 1007.54,653.659C978.867,639.093 946.729,642.243 916.817,653.526C915.324,654.089 913.837,654.672 912.358,655.272C912.757,647.448 912.051,639.581 910.155,631.825C905.59,613.158 894.59,597.072 879.257,585.012C902.878,577.645 917.109,567.12 926.002,556.277C938.496,541.045 943.132,523.867 942.392,507.427C941.583,489.429 940.192,469.913 948.418,456.593C965.222,429.386 979.451,421.701 1032.64,409.891C1062.32,403.303 1076.18,394.044 1093.47,364.432C1115.23,327.186 1132.53,260.485 1129.21,215.226C1124.81,155.242 1094.23,110.004 1035.03,112.388C982.792,114.491 945.731,132.493 924.051,154.723C887.98,191.707 890.052,272.727 858.741,303.14C848.949,312.652 820.499,316.871 793.536,323.618C768.282,329.938 740.894,339.764 721.484,361.939C695.05,392.139 693.729,440.024 680.875,482.029C670.935,514.512 641.563,521.649 617.972,525.064C586.483,529.62 562.975,521.703 554.211,513.383C546.985,506.523 544.105,497.609 539.761,488.698C532.621,474.052 522.056,461.221 498.307,454.105C476.543,447.585 463.363,447.669 449.01,450.336C440.35,451.944 430.338,456.234 426.634,453.167ZM530.565,816.415C552.173,815.822 578.538,814.488 605.893,790.589C638.735,761.897 638.581,715.078 621.384,679.805C609.098,654.603 575.562,633.005 535.104,634.287C499.462,635.416 500.97,652.098 455.621,645.362C442.334,643.389 421.551,642.008 418.048,610.64C416.235,594.407 415.202,577.732 411.675,564.171C408.061,550.277 401.749,538.968 392.356,531.059C376.043,517.322 352.933,516.731 327.329,520.149C319.193,521.235 310.588,522.81 302.177,522.697C291.88,522.559 281.913,519.489 274.198,507.673C264.319,492.543 251.506,466.152 259.596,440.478C264.997,423.336 280.221,407.776 309.471,395.208C328.244,387.142 338.672,385.982 348.171,390.705C357.462,395.326 363.794,405.674 367.613,416.075C375.961,438.811 379.877,463.816 386.468,476.684C392.63,488.716 399.584,495.014 406.298,498.735C414.306,503.173 422.847,504.51 432.829,503.293C443.445,501.997 459.245,494.188 481.045,500.75C492.169,504.099 496.185,513.249 499.45,520.308C504.47,531.161 510.43,541.889 521.522,551.234C536.04,563.465 572.087,581.219 622.486,573.942C664.435,567.885 677.347,559.523 691.172,548.445C711.559,532.108 719.144,515.748 726.105,491.895C735.81,458.639 738.471,408.167 761.866,389.183C775.057,378.478 787.049,375.3 802.013,370.294C824.138,362.891 842.733,362.73 873.277,352.839C893.029,346.443 912.035,322.173 918.628,299.213C930.198,258.917 937.37,223.236 959.386,201.871C976.748,185.024 993.407,178.61 1029.91,183.928C1051.02,187.003 1062.95,207.425 1065.18,237.799C1067.81,273.593 1067.25,292.913 1054.64,328.594C1046.21,352.468 1030.52,356.19 1015.86,359.74C995.79,364.602 978.546,370.675 964.405,376.983C945.163,385.567 931.125,396.246 920.768,407.454C902.358,427.38 895.42,448.07 893.168,472.342C890.974,495.983 892.374,514.04 885.416,523.713C876.587,535.986 859.861,541.438 824.166,544.249C758.054,549.457 718.863,571.248 697.493,597.592C673.859,626.726 669.999,662.761 679.026,696.678C689.465,735.898 717.541,754.523 751.451,760.033C794.027,766.949 840.41,758.512 867.61,741.773C882.092,732.862 902.239,719.608 926.532,711.081C935.52,707.927 947.03,704.467 962.188,712.166C972.977,717.646 988.316,727.834 996.423,744.953C1003.03,758.899 1005.59,770.644 1004.05,781.329C1001.68,797.684 990.643,811.952 971.724,825.805C911.247,870.09 854.013,895.431 716.737,930.763C638.285,950.955 559.904,960.064 483.016,951.505C441.354,946.868 407.953,942.279 398.603,904.881C388.955,866.287 405.566,845.227 430.443,832.301C460.53,816.668 513.812,816.875 530.565,816.415Z"/>
        </g>
    </g>
</svg>
