<svg xmlns="http://www.w3.org/2000/svg" fill-rule="evenodd" stroke-linejoin="round" stroke-miterlimit="2" clip-rule="evenodd" viewBox="0 0 1560 1560">
    <circle cx="1209.54" cy="1218.93" r="793.989" fill="#fff" transform="matrix(.98238 0 0 .98238 -408.233 -417.457)"/>
    <path fill="#222" fill-rule="nonzero" d="M669.245 1464.72l-75-16.53 3.203-14.532 30.312 6.68 21.696-98.437 15.156 3.34-21.696 98.438 29.532 6.509-3.203 14.531zM465.283 1398.033l45.946-106.165 14.096 6.1-20.145 46.548 55.652 24.085 20.145-46.548 14.244 6.164-45.946 106.165-14.243-6.164 19.954-46.107-55.652-24.085-19.954 46.107-14.097-6.1zM415.505 1369.235l-61.44-43.36 8.58-12.157 48.76 34.411 20.296-28.76-43.53-30.72 8.579-12.158 43.531 30.721 20.665-29.282-50.59-35.703 8.58-12.157 63.27 44.652-66.7 94.513zM253.498 1227.224c-5.418-6.524-8.91-12.983-10.6-19.275-1.566-6.395-1.33-12.622.585-18.58 2.018-5.835 6.043-11.257 11.828-16.061 3.57-2.965 7.425-5.335 11.791-7.089 4.244-1.652 8.65-2.607 13.3-2.518 4.875.111 9.544 1.225 14.313 3.712 4.77 2.487 9.413 6.326 13.91 11.742l10.938 13.17 32.742-27.19 9.916 11.94-88.994 73.905-19.729-23.756zm43.783-38.44c-2.965-3.57-5.931-5.889-8.981-7.308-3.05-1.419-5.958-1.915-8.806-1.838-2.97.18-5.533.85-8.013 1.871-2.48 1.02-4.409 2.205-6.009 3.534a24.218 24.218 0 00-4.946 5.564c-1.336 2.148-2.466 4.543-2.942 7.226-.374 2.806-.173 5.552.456 8.564.856 3.033 2.612 6.15 5.27 9.35l11.449 13.787 33.357-27.702-10.835-13.047zM206.908 1165.18l-8.457-13.013 96.996-63.037 8.457 13.014zM176.784 1118.73l-8.372-17.81 72.638-117.41 8.44 17.957-72.706 117.264zm105.374-47.757l-73.991-9.6 10.413-13.203 55.41 5.426 8.168 17.377zm-82.462-14.458L145 1051.107l-7.962-16.942 70.848 9.308-8.19 13.042zM122.228 990.48l-18.414-72.911 14.427-3.644 14.614 57.863 34.128-8.62-13.047-51.657 14.427-3.644 13.047 51.658 34.75-8.776-15.163-60.035 14.427-3.644 18.963 75.082-112.159 28.327zM95.94 868.244l-1.05-15.485 100.569-6.823-3.975-58.585 14.846-1.007 5.025 74.07-115.415 7.83zM102.172 656.276l114.86 13.745-1.824 15.251-50.361-6.026-7.205 60.21 50.36 6.027-1.843 15.41-114.861-13.745 1.844-15.41 49.884 5.97 7.205-60.211-49.884-5.97 1.825-15.25zM115.502 600.556l24.068-71.245 14.098 4.763-19.102 56.54 33.349 11.267 17.053-50.478 14.097 4.763-17.053 50.477 33.955 11.471 19.818-58.663 14.097 4.763-24.785 73.366-109.595-37.024zM255.242 549.397l-80.43-102.969.469-.837 129.747 14.873-8.675 15.497L194 461.938l-.89-13.15 69.556 87.346-7.425 13.263zm-23.794-47.243l21.024-37.555 14.228 2.097-25.713 45.933-9.54-10.475zM318.143 442.605l-87.036-76.201 20.763-23.715c7.483-8.547 15.237-14.731 23.26-18.552 7.918-3.7 15.625-5.46 23.226-5.397 7.601.063 14.735 1.63 21.493 4.356 6.772 2.953 12.807 6.747 17.983 11.28 6.62 5.796 11.571 12.044 14.745 18.863 3.174 6.82 4.782 13.97 5.036 21.21.254 7.24-.983 14.238-3.694 21.221-2.38 6.848-6.265 13.228-11.324 19.007l-24.452 27.928zm-.972-21.479l12.226-13.964c4.216-4.815 7.393-9.902 9.532-15.26 2.033-5.237 3.149-10.64 3.015-16.073-.134-5.434-1.502-10.672-4-15.836-2.496-5.163-6.213-9.906-11.269-14.332-5.417-4.743-10.85-8.01-16.403-9.683-5.674-1.778-11.152-2.321-16.556-1.736-5.404.585-10.507 2.285-15.324 4.872a49.65 49.65 0 00-12.691 10.367l-13.175 15.048 64.645 56.597zM506.176 269.262c-.927 2.113-2.306 4.706-4.273 7.866-1.967 3.159-4.51 6.307-7.545 9.58-3.169 3.36-6.952 6.352-11.399 9.199-7.632 4.697-15.232 7.663-22.935 8.986-7.703 1.322-15.287 1.049-22.311-.723-7.025-1.772-13.623-4.957-19.71-9.419-6-4.327-11.269-9.884-15.496-16.486-4.66-7.276-7.76-14.79-9.218-22.407-1.678-7.665-1.76-15.211-.382-22.554 1.465-7.207 4.342-13.99 8.632-20.345 4.154-6.27 9.846-11.625 16.852-16.111 5.794-3.71 11.702-6.353 17.367-7.89 5.751-1.403 11.136-2.191 15.885-2.192l2.51 15.492c-3.816-.026-8.172.293-12.98 1.091-4.943.885-9.638 2.752-14.354 5.771-4.716 3.02-8.693 6.897-11.662 11.458-2.97 4.56-5.017 9.672-6.094 15.11-1.077 5.44-1.049 11.122.133 16.825.961 5.654 3.124 11.109 6.489 16.364 3.364 5.255 7.365 9.723 11.964 13.048 4.55 3.546 9.478 5.9 14.734 7.285 5.256 1.384 10.533 1.615 16.188.654 5.654-.96 11.11-3.124 16.634-6.66 4.985-3.193 8.78-6.763 11.738-10.747 2.959-3.984 4.936-7.72 6.288-11.246l12.945 8.05zM498.046 217.107c-2.885-7.462-4.104-15.053-3.957-22.658.388-7.87 2.018-15.19 5.072-22.375 3.112-7.035 7.374-13.315 12.787-18.839 5.619-5.432 12.205-9.694 19.816-12.636 7.61-2.943 15.202-4.163 23.014-3.924 7.72.446 15.098 2.225 22.283 5.28 7.093 3.26 13.373 7.523 18.805 13.142 5.374 5.47 9.579 11.907 12.464 19.368 2.942 7.611 4.22 15.352 3.98 23.163a56.504 56.504 0 01-5.187 22.077c-3.261 7.093-7.58 13.224-13.05 18.598-5.62 5.432-12.057 9.636-19.668 12.58-7.61 2.942-15.293 4.368-23.105 4.13-7.663-.297-14.983-1.927-21.961-4.89-6.978-2.962-13.108-7.282-18.69-12.844-5.282-5.677-9.544-12.263-12.603-20.172zm14.981-5.621c2.193 5.67 5.315 10.64 9.25 14.607 3.994 4.117 8.56 7.497 13.734 9.786 5.173 2.288 10.506 3.657 16.238 3.842 5.79.335 11.418-.64 17.088-2.833 5.522-2.135 10.341-5.2 14.4-9.342 4.117-3.993 7.142-8.594 9.28-13.71 2.14-5.115 3.244-10.688 3.43-16.42.242-5.584-.79-11.36-3.04-17.18-2.193-5.671-5.315-10.64-9.366-14.906-3.994-4.117-8.56-7.497-13.734-9.786-5.173-2.288-10.505-3.657-16.296-3.991-5.732-.185-11.36.79-16.88 2.924-5.672 2.193-10.491 5.257-14.55 9.4-4.06 4.143-7.084 8.743-9.372 13.916-2.288 5.174-3.393 10.747-3.429 16.422a48.021 48.021 0 003.247 17.271zM642.743 219.198c-.533-2.34-.024-4.425 1.301-6.532 1.361-1.951 3.055-3.158 5.084-3.62 1.872-.426 3.921-.073 5.993 1.097 2.107 1.325 3.313 3.02 3.846 5.36.569 2.495.25 4.701-1.146 6.496-1.36 1.95-3.055 3.157-4.927 3.584-2.028.462-4.077.108-6.149-1.061-2.036-1.013-3.434-2.828-4.002-5.324zM788.456 115.641c-4.067-1.945-8.443-3.56-13.128-4.845-4.686-1.285-9.35-1.93-13.827-1.781-6.237.208-10.986 1.807-14.568 4.808-3.582 3-5.373 6.902-5.214 11.7.123 3.678 1.343 6.679 3.822 8.997 2.484 2.479 5.597 4.617 9.493 6.248 3.897 1.631 7.953 3.257 12.164 4.718 3.726 1.316 7.292 2.638 10.868 4.28 3.577 1.642 6.844 3.614 9.808 6.077 2.804 2.468 5.149 5.592 6.87 9.217 1.882 3.619 2.836 8.23 3.023 13.827.202 6.076-1.05 11.721-3.924 16.78-3.033 5.063-7.218 9.205-12.719 12.27-5.5 3.064-12.17 4.727-20.005 4.988-5.117.17-9.936-.31-14.61-1.274a65.35 65.35 0 01-13.108-4.206c-4.056-1.626-7.638-3.428-10.745-5.406l6.471-12.382c2.617 1.674 5.554 3.337 8.966 4.824 3.416 1.648 6.817 2.815 10.532 3.812 3.71.837 7.244 1.2 10.602 1.088 3.678-.123 7.175-.88 10.645-2.436 3.635-1.402 6.445-3.576 8.753-6.375 2.308-2.798 3.305-6.513 3.15-11.15-.133-3.999-1.199-7.165-3.368-9.814-2.164-2.49-5.117-4.632-8.54-6.44-3.416-1.647-7.152-3.283-11.038-4.595-3.726-1.316-7.452-2.633-11.189-4.27-3.73-1.476-7.318-3.438-10.596-5.73-3.273-2.132-5.933-5.085-7.969-8.54-2.036-3.454-3.14-7.74-3.304-12.697-.203-6.076 1.06-11.401 3.95-15.98 2.724-4.733 6.605-8.384 11.631-11.273 5.032-2.73 10.901-4.366 17.452-4.744 7.516-.25 14.104.491 19.92 2.058 5.655 1.573 10.847 3.641 15.255 6.216l-5.523 12.03zM851.253 145.483l-1.355 5.62 2.496-2.53 54.357-41.623 19.766 3.055-54.857 41.71 39.872 73.028-19.45-3.007-33.164-61.954-11.087 7.838-7.138 46.172-15.496-2.395L842.87 97.074l15.496 2.396-7.113 46.013zM921.424 226.527l87.553-96.986.906.317 7.73 130.369-16.762-5.873-3.841-103.237 12.8-3.144-74.04 83.58-14.346-5.026zm42.431-31.587l40.62 14.231.388 14.377-49.68-17.405 8.672-11.203zM1076.837 161.537l67.352 36.905-7.15 13.05-27.222-14.916-48.438 88.399-13.61-7.458 48.437-88.4-26.52-14.53 7.15-13.05zM1181.84 223.618l58.545 47.197-9.34 11.584-46.462-37.456-22.092 27.404 41.48 33.44-9.339 11.584-41.48-33.44-22.493 27.903 48.206 38.862-9.339 11.584-60.289-48.602 72.603-90.06zM1275.857 492.719l-10.387-14.602 27.661-87.812c.617-1.617 1.532-3.642 2.616-5.984a35.46 35.46 0 014.272-6.966c1.66-2.36 3.599-4.327 5.945-5.996 3.781-2.69 7.95-4.282 12.509-4.775 4.558-.493 9.02.26 13.48 2.389 4.367 1.998 8.378 5.428 11.902 10.383 3.617 5.084 5.913 10.52 6.832 15.953.827 5.302.892 10.362.009 14.917l-13.02-.36c.623-4.37.723-8.369.303-11.996-.328-3.498-1.531-6.57-3.293-9.046-2.69-3.781-5.997-5.945-9.697-6.455-3.923-.547-7.403.358-10.663 2.677-1.564 1.113-2.85 2.617-4.082 4.474-1.231 1.858-2.071 3.437-2.873 4.793-.617 1.617-.991 2.472-1.29 2.88l-30.224 95.526zm11.427-79.994c-1.762-2.477-3.953-4.453-6.535-6.15a23.923 23.923 0 00-8.363-3.476c-2.993-.62-5.839-.756-8.797-.222-3.051.403-5.9 1.644-8.377 3.406-3.39 2.412-5.739 5.457-6.918 9.045-1.402 3.55-1.595 7.418-.896 11.437a27.505 27.505 0 004.74 11.355c2.318 3.26 4.973 5.887 7.778 7.622 2.675 1.828 5.685 3.024 8.548 3.737 3.124.527 5.877.532 8.482.053l-1.29 13.092c-5.972.714-12.22-.34-18.65-3.03-6.523-2.822-12.224-7.8-17.325-14.97-4.173-5.867-6.802-12.047-7.664-18.503-.861-6.456-.199-12.425 2.026-18.13 2.224-5.706 5.897-10.48 11.243-14.282 4.042-2.875 8.472-4.652 13.29-5.33 4.82-.68 9.58-.336 14.413.939a45.167 45.167 0 0113.325 6.033 44.362 44.362 0 0110.694 10.065l-9.724 7.31zm33.188 25.676l8.254 11.604-49.964 12.57-.756-13.208 42.466-10.966zM1418.554 584.862c.587-4.47.764-9.132.53-13.984-.232-4.853-1.067-9.487-2.599-13.697-2.133-5.864-5.127-9.882-9.092-12.356-3.965-2.473-8.23-2.965-12.74-1.324-3.459 1.258-5.933 3.35-7.367 6.426-1.586 3.13-2.651 6.754-2.992 10.964-.341 4.21-.628 8.571-.709 13.027-.095 3.95-.245 7.751-.695 11.66-.45 3.91-1.311 7.629-2.732 11.21-1.476 3.432-3.717 6.63-6.628 9.393-2.857 2.912-6.944 5.25-12.206 7.165-5.714 2.078-11.469 2.64-17.17 1.479-5.755-1.311-10.99-4.004-15.612-8.281-4.62-4.278-8.271-10.101-10.952-17.469-1.75-4.811-2.79-9.54-3.324-14.284a65.351 65.351 0 01-.07-13.765c.286-4.361.886-8.325 1.802-11.893l13.78 2.308c-.78 3.007-1.449 6.315-1.804 10.02-.505 3.76-.559 7.354-.353 11.195.356 3.787 1.108 7.259 2.257 10.416 1.258 3.459 3.063 6.548 5.62 9.363 2.461 3.02 5.4 5.016 8.777 6.342 3.377 1.325 7.218 1.12 11.578-.467 3.76-1.368 6.438-3.364 8.283-6.249 1.695-2.83 2.815-6.302 3.47-10.116.506-3.76.901-7.82.942-11.92.095-3.95.19-7.901.586-11.961.245-4.005.996-8.024 2.157-11.852 1.011-3.773 2.993-7.218 5.644-10.226 2.652-3.008 6.383-5.387 11.044-7.083 5.714-2.079 11.168-2.53 16.417-1.206 5.345 1.12 10.021 3.676 14.328 7.557 4.156 3.937 7.533 9.008 9.926 15.118 2.571 7.066 3.912 13.56 4.228 19.574.26 5.864-.094 11.442-1.173 16.431l-13.15-1.515zM1449.898 619.114l14.142 75.487-14.626 2.74-5.716-30.51-99.076 18.562-2.858-15.254 99.076-18.562-5.568-29.723 14.626-2.74zM1468.697 770.705c.028 5.92-.746 11.363-2.162 16.33-1.577 4.968-3.796 9.298-6.82 12.833-3.022 3.694-6.847 6.752-11.158 8.853-4.47 2.101-9.585 3.085-15.505 3.114-4.64.022-9.123-.597-13.449-1.856a34.919 34.919 0 01-11.872-6.664c-3.694-3.023-6.593-7.009-8.857-11.958-2.103-4.95-3.253-11.185-3.287-18.385l-.082-17.12-42.56.203-.073-15.52 115.679-.55.146 30.72zm-58.232 1.877c.022 4.64.68 8.476 2.135 11.51 1.454 3.033 3.225 5.264 5.473 7.014 2.089 1.75 4.494 2.858 7.058 3.646a23.965 23.965 0 007.205 1.086c2.4-.012 4.798-.343 7.355-1.155 2.396-.812 4.79-2.103 6.861-3.873a25.378 25.378 0 005.247-6.905c1.427-2.887 2.05-6.41 2.031-10.41l-.085-17.92-43.36.207.08 16.8zm-8.71 19.081l-48.495 30.471-.085-17.92 48.013-30.948.568 18.397zM1465.003 866.088l-13.063 74.057-14.654-2.585 10.367-58.773-34.664-6.115-9.256 52.47-14.654-2.585 9.256-52.47-35.295-6.226-10.757 60.979-14.653-2.585 13.452-76.262 113.921 20.095zM1438.838 988.954l-26.363 70.427-13.935-5.216 20.922-55.893-32.967-12.34-18.678 49.899-13.936-5.216 18.679-49.9-33.566-12.564-21.707 57.99-13.936-5.216L1330.5 948.4l108.34 40.554zM1395.38 1095.847l-38.549 66.425-12.87-7.469 15.58-26.846-87.182-50.595 7.79-13.424 87.182 50.595 15.179-26.155 12.87 7.47zM1335.46 1196.717l-12.171 13.152-86.122-36.971 2.67-1.236 27.909 57.002-20.274-8.952-31.618-70.897 119.606 47.902zm-37.71 40.748l-10.54 11.391-86.922-34.223 2.643-1.914 43.091 80.644-11.193 12.095-57.328-114.964 120.25 46.971zM1193.988 1335.673l-62.558 41.733-8.258-12.378 49.647-33.12-19.534-29.283-44.323 29.568-8.258-12.378 44.323-29.568-19.89-29.815-51.51 34.363-8.258-12.378 64.421-42.976 64.198 96.232zM1052.015 1290.95l.901 130.656-.883.378-93.724-90.948 16.329-6.985 72.537 73.56-7.318 10.96-1.817-111.643 13.975-5.978zm-9.972 51.949l-39.57 16.928-9.994-10.343 48.397-20.704 1.167 14.119zM930.33 1456.202c-5.797 1.202-11.286 1.522-16.435 1.12-5.182-.56-9.866-1.877-13.93-4.14-4.22-2.229-7.977-5.372-10.89-9.18-2.946-3.964-4.926-8.783-6.127-14.58-.942-4.543-1.225-9.06-.849-13.55a34.919 34.919 0 014.177-12.957c2.23-4.22 5.562-7.853 9.964-11.053 4.435-3.043 10.317-5.407 17.367-6.868l16.764-3.475-8.64-41.674 15.198-3.15 23.481 113.271-30.08 6.236zm-13.389-56.703c-4.543.942-8.173 2.348-10.858 4.375-2.684 2.027-4.52 4.205-5.789 6.756-1.301 2.394-1.91 4.971-2.174 7.64-.264 2.67-.09 5.084.365 7.278a24.218 24.218 0 002.59 6.98c1.27 2.187 3.011 4.277 5.157 5.957a25.378 25.378 0 007.808 3.773c3.113.826 6.69.738 10.606-.074l17.547-3.638-8.802-42.457-16.45 3.41zm-20.43-4.752l-39.484-41.489 17.547-3.638 39.857 40.922-17.92 4.205z"/>
    <g>
        <path fill="#222" d="M684.806 1115.079c6.198 22.206 25.697 37.282 51.487 43.892 30.847 7.9 66.96 7.769 91.232 6.253 25.301-1.581 69.022-11.762 95.822-31.55 22.328-16.48 34.011-38.91 24.272-66.988-7.434-21.435-23.109-33.81-45.717-34.014-27.023-.237-58.469 10.86-96.597 18.714-41.296 8.5-72.176 11.511-96.075 18.483-13.246 3.861-19.997 11.696-23.634 20.96-2.756 7.018-3.37 15.005-.79 24.25zm28.809-8.85c-1.281-7.789 8.735-13.449 15.813-14.391 24.482-3.268 45.78-5.015 81.666-10.392 29.342-4.395 47.332-8.56 68.496-12.4 13.304-2.413 23.06-.343 27.016 11.07 4.415 12.73-.456 21.125-10.735 28.373-21.632 15.248-44.873 21.712-71.06 25.39-27.57 3.867-56.77 2.2-84.295-4.85-13.152-3.368-24.993-11.203-26.901-22.8zM565.727 651.783c-4.86-4.024-4.855-19.327-9.708-32.544-5.347-14.56-10.867-25.207-23.6-32.224-12.613-6.95-30.625-10.636-56.108.314-31.164 13.391-40.08 26.968-45.834 45.23-8.639 27.42-.118 52.707 10.431 68.865 15.691 24.031 34.605 27.82 55.398 25.647 7.118-.743 19.422-3.908 24.332-.432 6.267 4.439 5.758 24.98 6.728 32.909 2.88 23.537 11.028 44.37 36.945 50.674 10.757 2.616 23.663 4.276 23.663 4.276-3.03 9.036-4.378 14.593-3.484 25.103.93 10.93 2.74 15.085 7.013 22.621-18.708 4.407-40.257 10.638-55.655 23.975-16.658 14.429-26.154 37.062-18.101 71.592 8.991 38.557 40.307 47.671 83.095 52.434 54.656 6.087 128.29-1.827 185.634-16.74 72.414-18.831 131.311-37.168 172.55-70.542 33.137-26.812 46.079-61.43 27.708-100.232-9.337-19.72-25.798-32.502-38.225-38.814-18.894-9.598-40.071-7.522-59.781-.087-.984.37-1.964.755-2.938 1.15a53.448 53.448 0 00-1.452-15.45c-3.008-12.3-10.256-22.9-20.36-30.847 15.565-4.854 24.942-11.79 30.802-18.935 8.233-10.037 11.288-21.356 10.8-32.189-.533-11.86-1.45-24.72 3.971-33.496 11.073-17.928 20.449-22.992 55.497-30.774 19.557-4.341 28.69-10.442 40.083-29.955 14.339-24.543 25.739-68.495 23.55-98.318-2.898-39.525-23.049-69.334-62.058-67.764-34.422 1.386-58.843 13.248-73.128 27.897-23.769 24.37-22.404 77.757-43.036 97.797-6.452 6.268-25.199 9.048-42.966 13.494-16.64 4.165-34.688 10.64-47.478 25.251-17.418 19.9-18.288 51.454-26.758 79.132-6.55 21.405-25.905 26.108-41.45 28.358-20.749 3.002-36.24-2.215-42.014-7.697-4.762-4.52-6.66-10.394-9.522-16.266-4.705-9.65-11.666-18.106-27.316-22.795-14.34-4.296-23.026-4.24-32.483-2.483-5.707 1.06-12.304 3.886-14.745 1.865zm68.484 239.359c14.239-.391 31.612-1.27 49.637-17.018 21.64-18.907 21.54-49.757 10.208-73-8.096-16.607-30.194-30.839-56.854-29.994-23.486.744-22.492 11.737-52.374 7.298-8.755-1.3-22.45-2.21-24.758-22.88-1.195-10.696-1.876-21.684-4.2-30.62-2.381-9.155-6.54-16.607-12.73-21.819-10.75-9.052-25.977-9.441-42.849-7.189-5.36.716-11.031 1.754-16.573 1.68-6.785-.092-13.353-2.115-18.437-9.9-6.51-9.97-14.952-27.36-9.622-44.278 3.56-11.296 13.591-21.549 32.865-29.83 12.37-5.315 19.242-6.08 25.5-2.968 6.123 3.045 10.296 9.864 12.812 16.718 5.5 14.981 8.081 31.458 12.424 39.937 4.06 7.929 8.643 12.079 13.067 14.53 5.277 2.925 10.905 3.806 17.482 3.004 6.996-.854 17.407-6 31.772-1.676 7.33 2.207 9.976 8.237 12.128 12.888 3.307 7.151 7.235 14.22 14.544 20.378 9.566 8.06 33.319 19.759 66.529 14.964 27.642-3.992 36.15-9.502 45.26-16.801 13.433-10.766 18.431-21.546 23.018-37.263 6.395-21.914 8.149-55.172 23.565-67.681 8.692-7.054 16.594-9.148 26.454-12.447 14.58-4.878 26.832-4.984 46.959-11.502 13.015-4.214 25.539-20.207 29.883-35.336 7.624-26.553 12.35-50.064 26.857-64.143 11.44-11.1 22.418-15.327 46.471-11.823 13.91 2.026 21.772 15.483 23.241 35.498 1.733 23.586 1.364 36.316-6.945 59.828-5.555 15.732-15.894 18.184-25.554 20.523-13.225 3.204-24.588 7.206-33.906 11.363-12.679 5.656-21.929 12.693-28.754 20.078-12.13 13.13-16.702 26.764-18.186 42.757-1.446 15.578-.524 27.477-5.108 33.85-5.818 8.088-16.84 11.68-40.36 13.533-43.564 3.431-69.389 17.79-83.47 35.15-15.574 19.197-18.117 42.942-12.169 65.291 6.879 25.844 25.38 38.116 47.724 41.747 28.055 4.557 58.618-1.002 76.541-12.032 9.543-5.872 22.819-14.605 38.826-20.224 5.923-2.078 13.507-4.358 23.496.715 7.109 3.61 17.216 10.324 22.558 21.604 4.354 9.19 6.04 16.93 5.026 23.97-1.562 10.777-8.834 20.179-21.3 29.307-39.851 29.181-77.565 45.88-168.022 69.16-51.695 13.306-103.343 19.308-154.007 13.669-27.453-3.056-49.462-6.08-55.623-30.723-6.358-25.43 4.588-39.308 20.98-47.826 19.826-10.3 54.935-10.164 65.974-10.467z"/>
    </g>
</svg>