<?xml version="1.0" encoding="UTF-8"?>
<svg width="36px" height="26px" viewBox="0 0 36 26" version="1.1" xmlns="http://www.w3.org/2000/svg" xmlns:xlink="http://www.w3.org/1999/xlink">
    <title>icons / wash</title>
    <g id="subsites" stroke="none" stroke-width="1" fill="none" fill-rule="evenodd" stroke-linecap="round" stroke-linejoin="round">
        <g id="wash-desktop" transform="translate(-751.000000, -584.000000)" stroke="#222222" stroke-width="2">
            <g id="sitecontent" transform="translate(310.000000, 160.000000)">
                <g id="content" transform="translate(420.000000, 338.000000)">
                    <g id="Group" transform="translate(22.000000, 82.000000)">
                        <g id="icon" transform="translate(0.000000, 5.000000)">
                            <polyline id="Stroke-3" points="0 0 5.63487937 24 28.4227413 24 34 0"></polyline>
                            <path d="M1.53141795,5.27529352 C6.26911461,5.27529352 7.00244821,2.3078962 11.9122871,2.3078962 C16.822126,2.3078962 18.9009574,5.27529352 23.48579,5.27529352 C28.0706226,5.27529352 27.2720481,2.68528076 33.0193447,2.68528076" id="Stroke-4"></path>
                            <path d="M21.5279647,11.3482295 C21.5279647,10.1552056 20.5710259,9.18805101 19.3905363,9.18805101 L19.3901006,9.18805101 C18.2096111,9.18805101 17.2526723,10.1552056 17.2526723,11.3482295 L17.2526723,16.3884076 C17.2526723,17.5814315 18.2096111,18.5485861 19.3901006,18.5485861 L19.3905363,18.5485861 C20.5710259,18.5485861 21.5279647,17.5814315 21.5279647,16.3884076 L21.5279647,11.3482295 Z" id="Stroke-5"></path>
                            <path d="M26.1453632,9.18805101 C27.0439774,9.18805101 27.7736078,9.9253736 27.7736078,10.8335842 C27.7736078,11.7417948 27.0439774,12.4791174 26.1453632,12.4791174 C25.2466947,12.4791174 24.5171187,11.7417948 24.5171187,10.8335842 C24.5171187,9.9253736 25.2466947,9.18805101 26.1453632,9.18805101 Z" id="Stroke-6"></path>
                            <line x1="12.9717707" y1="18.5485861" x2="12.9717707" y2="9.19883814" id="Stroke-7"></line>
                            <polyline id="Stroke-8" points="9.25587247 9.83847113 9.25587247 15.6865835 14.3858313 15.6865835"></polyline>
                        </g>
                    </g>
                </g>
            </g>
        </g>
    </g>
</svg>